<?xml version="1.0" standalone="no"?>
<!DOCTYPE svg PUBLIC "-//W3C//DTD SVG 20010904//EN"
 "http://www.w3.org/TR/2001/REC-SVG-20010904/DTD/svg10.dtd">
<svg version="1.0" xmlns="http://www.w3.org/2000/svg"
 width="48.000000pt" height="48.000000pt" viewBox="0 0 48.000000 48.000000"
 preserveAspectRatio="xMidYMid meet">

<g transform="translate(0.000000,48.000000) scale(0.100000,-0.100000)"
fill="#000000" stroke="none">
<path d="M207 402 c-3 -15 -28 -57 -56 -93 -63 -81 -71 -113 -42 -173 23 -47
82 -86 131 -86 48 0 108 39 129 84 24 49 25 64 9 119 -13 44 -95 140 -138 162
-27 14 -28 13 -33 -13z m83 -271 c0 -34 -17 -51 -50 -51 -55 0 -65 43 -23 98
l26 35 24 -27 c13 -15 23 -39 23 -55z"/>
</g>
</svg>
