<svg width="515" height="255" viewBox="0 0 515 255" fill="none" xmlns="http://www.w3.org/2000/svg">
<rect width="515" height="255" fill="#D0E4DC"/>
<path d="M208.168 109.672C205.416 109.672 202.76 109.336 200.2 108.664C197.672 107.96 195.608 107.064 194.008 105.976L197.128 98.968C198.632 99.928 200.36 100.728 202.312 101.368C204.296 101.976 206.264 102.28 208.216 102.28C209.528 102.28 210.584 102.168 211.384 101.944C212.184 101.688 212.76 101.368 213.112 100.984C213.496 100.568 213.688 100.088 213.688 99.544C213.688 98.776 213.336 98.168 212.632 97.72C211.928 97.272 211.016 96.904 209.896 96.616C208.776 96.328 207.528 96.04 206.152 95.752C204.808 95.464 203.448 95.096 202.072 94.648C200.728 94.2 199.496 93.624 198.376 92.92C197.256 92.184 196.344 91.24 195.64 90.088C194.936 88.904 194.584 87.416 194.584 85.624C194.584 83.608 195.128 81.784 196.216 80.152C197.336 78.52 199 77.208 201.208 76.216C203.416 75.224 206.168 74.728 209.464 74.728C211.672 74.728 213.832 74.984 215.944 75.496C218.088 75.976 219.992 76.696 221.656 77.656L218.728 84.712C217.128 83.848 215.544 83.208 213.976 82.792C212.408 82.344 210.888 82.12 209.416 82.12C208.104 82.12 207.048 82.264 206.248 82.552C205.448 82.808 204.872 83.16 204.52 83.608C204.168 84.056 203.992 84.568 203.992 85.144C203.992 85.88 204.328 86.472 205 86.92C205.704 87.336 206.616 87.688 207.736 87.976C208.888 88.232 210.136 88.504 211.48 88.792C212.856 89.08 214.216 89.448 215.56 89.896C216.936 90.312 218.184 90.888 219.304 91.624C220.424 92.328 221.32 93.272 221.992 94.456C222.696 95.608 223.048 97.064 223.048 98.824C223.048 100.776 222.488 102.584 221.368 104.248C220.28 105.88 218.632 107.192 216.424 108.184C214.248 109.176 211.496 109.672 208.168 109.672ZM231.001 118.744C229.625 118.744 228.233 118.52 226.825 118.072C225.449 117.656 224.329 117.096 223.465 116.392L226.633 110.008C227.177 110.488 227.801 110.856 228.505 111.112C229.241 111.4 229.961 111.544 230.665 111.544C231.657 111.544 232.441 111.32 233.017 110.872C233.593 110.424 234.089 109.72 234.505 108.76L235.705 105.736L236.425 104.824L245.257 82.984H253.945L242.713 110.056C241.817 112.296 240.777 114.04 239.593 115.288C238.441 116.568 237.145 117.464 235.705 117.976C234.297 118.488 232.729 118.744 231.001 118.744ZM234.553 110.104L223.081 82.984H232.441L240.889 104.008L234.553 110.104ZM273.247 82.552C275.263 82.552 277.087 82.968 278.719 83.8C280.351 84.6 281.631 85.848 282.559 87.544C283.519 89.24 283.999 91.432 283.999 94.12V109H274.879V95.608C274.879 93.752 274.495 92.408 273.727 91.576C272.991 90.712 271.951 90.28 270.607 90.28C269.647 90.28 268.767 90.504 267.967 90.952C267.167 91.368 266.543 92.024 266.095 92.92C265.647 93.816 265.423 94.984 265.423 96.424V109H256.303V82.984H264.991V90.376L263.311 88.216C264.303 86.328 265.663 84.92 267.391 83.992C269.119 83.032 271.071 82.552 273.247 82.552ZM305.613 109V104.152L304.989 102.952V94.024C304.989 92.584 304.541 91.48 303.645 90.712C302.781 89.912 301.389 89.512 299.469 89.512C298.221 89.512 296.957 89.72 295.677 90.136C294.397 90.52 293.309 91.064 292.413 91.768L289.341 85.576C290.813 84.616 292.573 83.88 294.621 83.368C296.701 82.824 298.765 82.552 300.813 82.552C305.037 82.552 308.301 83.528 310.605 85.48C312.941 87.4 314.109 90.424 314.109 94.552V109H305.613ZM297.933 109.432C295.853 109.432 294.093 109.08 292.653 108.376C291.213 107.672 290.109 106.712 289.341 105.496C288.605 104.28 288.237 102.92 288.237 101.416C288.237 99.816 288.637 98.44 289.437 97.288C290.269 96.104 291.533 95.208 293.229 94.6C294.925 93.96 297.117 93.64 299.805 93.64H305.949V98.392H301.053C299.581 98.392 298.541 98.632 297.933 99.112C297.357 99.592 297.069 100.232 297.069 101.032C297.069 101.832 297.373 102.472 297.981 102.952C298.589 103.432 299.421 103.672 300.477 103.672C301.469 103.672 302.365 103.432 303.165 102.952C303.997 102.44 304.605 101.672 304.989 100.648L306.237 104.008C305.757 105.8 304.813 107.16 303.405 108.088C302.029 108.984 300.205 109.432 297.933 109.432ZM336.234 109.432C334.026 109.432 332.138 108.952 330.57 107.992C329.002 107 327.802 105.528 326.97 103.576C326.17 101.592 325.77 99.064 325.77 95.992C325.77 92.888 326.154 90.36 326.922 88.408C327.69 86.424 328.842 84.952 330.378 83.992C331.946 83.032 333.898 82.552 336.234 82.552C338.602 82.552 340.746 83.112 342.666 84.232C344.618 85.32 346.154 86.872 347.274 88.888C348.426 90.872 349.002 93.24 349.002 95.992C349.002 98.744 348.426 101.128 347.274 103.144C346.154 105.16 344.618 106.712 342.666 107.8C340.746 108.888 338.602 109.432 336.234 109.432ZM319.866 118.312V82.984H328.554V87.4L328.506 95.992L328.986 104.632V118.312H319.866ZM334.314 102.184C335.338 102.184 336.25 101.944 337.05 101.464C337.882 100.984 338.538 100.28 339.018 99.352C339.53 98.424 339.786 97.304 339.786 95.992C339.786 94.68 339.53 93.56 339.018 92.632C338.538 91.704 337.882 91 337.05 90.52C336.25 90.04 335.338 89.8 334.314 89.8C333.29 89.8 332.362 90.04 331.53 90.52C330.73 91 330.074 91.704 329.562 92.632C329.082 93.56 328.842 94.68 328.842 95.992C328.842 97.304 329.082 98.424 329.562 99.352C330.074 100.28 330.73 100.984 331.53 101.464C332.362 101.944 333.29 102.184 334.314 102.184ZM362.697 109.432C360.489 109.432 358.329 109.176 356.217 108.664C354.137 108.152 352.457 107.512 351.177 106.744L353.913 100.504C355.129 101.24 356.553 101.832 358.185 102.28C359.817 102.696 361.417 102.904 362.984 102.904C364.521 102.904 365.577 102.744 366.153 102.424C366.761 102.104 367.065 101.672 367.065 101.128C367.065 100.616 366.777 100.248 366.201 100.024C365.657 99.768 364.921 99.576 363.993 99.448C363.097 99.32 362.105 99.176 361.017 99.016C359.929 98.856 358.825 98.648 357.705 98.392C356.617 98.104 355.609 97.688 354.681 97.144C353.785 96.568 353.065 95.8 352.521 94.84C351.977 93.88 351.705 92.664 351.705 91.192C351.705 89.528 352.185 88.056 353.145 86.776C354.137 85.464 355.577 84.44 357.465 83.704C359.353 82.936 361.657 82.552 364.377 82.552C366.201 82.552 368.041 82.744 369.897 83.128C371.785 83.48 373.369 84.024 374.649 84.76L371.913 90.952C370.633 90.216 369.353 89.72 368.073 89.464C366.793 89.176 365.577 89.032 364.424 89.032C362.889 89.032 361.801 89.208 361.161 89.56C360.553 89.912 360.249 90.344 360.249 90.856C360.249 91.368 360.521 91.768 361.065 92.056C361.609 92.312 362.329 92.52 363.225 92.68C364.153 92.808 365.161 92.952 366.249 93.112C367.337 93.24 368.425 93.448 369.513 93.736C370.633 94.024 371.641 94.456 372.537 95.032C373.465 95.576 374.201 96.328 374.745 97.288C375.289 98.216 375.561 99.416 375.561 100.888C375.561 102.488 375.065 103.928 374.073 105.208C373.113 106.488 371.673 107.512 369.753 108.28C367.865 109.048 365.513 109.432 362.697 109.432ZM393.123 109.432C390.051 109.432 387.363 108.856 385.059 107.704C382.787 106.52 381.011 104.92 379.73 102.904C378.483 100.856 377.859 98.536 377.859 95.944C377.859 93.352 378.467 91.048 379.683 89.032C380.931 86.984 382.643 85.4 384.819 84.28C386.995 83.128 389.443 82.552 392.163 82.552C394.723 82.552 397.059 83.08 399.171 84.136C401.283 85.16 402.963 86.68 404.211 88.696C405.459 90.712 406.083 93.16 406.083 96.04C406.083 96.36 406.067 96.728 406.035 97.144C406.003 97.56 405.971 97.944 405.939 98.296H385.347V93.496H401.091L397.635 94.84C397.667 93.656 397.443 92.632 396.963 91.768C396.515 90.904 395.875 90.232 395.043 89.752C394.243 89.272 393.299 89.032 392.211 89.032C391.123 89.032 390.163 89.272 389.331 89.752C388.531 90.232 387.907 90.92 387.459 91.816C387.011 92.68 386.787 93.704 386.787 94.888V96.28C386.787 97.56 387.043 98.664 387.555 99.592C388.099 100.52 388.867 101.24 389.859 101.752C390.851 102.232 392.035 102.472 393.411 102.472C394.691 102.472 395.779 102.296 396.675 101.944C397.603 101.56 398.515 100.984 399.411 100.216L404.211 105.208C402.963 106.584 401.427 107.64 399.603 108.376C397.779 109.08 395.619 109.432 393.123 109.432Z" fill="#559092"/>
<path d="M192.98 151L199.32 137H201.3L207.66 151H205.56L199.9 138.12H200.7L195.04 151H192.98ZM195.68 147.5L196.22 145.9H204.1L204.68 147.5H195.68ZM215.191 151.12C214.111 151.12 213.144 150.887 212.291 150.42C211.451 149.953 210.791 149.313 210.311 148.5C209.831 147.687 209.591 146.753 209.591 145.7C209.591 144.647 209.831 143.713 210.311 142.9C210.791 142.087 211.451 141.453 212.291 141C213.144 140.533 214.111 140.3 215.191 140.3C216.151 140.3 217.004 140.493 217.751 140.88C218.511 141.253 219.097 141.813 219.511 142.56L218.051 143.5C217.704 142.98 217.277 142.6 216.771 142.36C216.277 142.107 215.744 141.98 215.171 141.98C214.477 141.98 213.857 142.133 213.311 142.44C212.764 142.747 212.331 143.18 212.011 143.74C211.691 144.287 211.531 144.94 211.531 145.7C211.531 146.46 211.691 147.12 212.011 147.68C212.331 148.24 212.764 148.673 213.311 148.98C213.857 149.287 214.477 149.44 215.171 149.44C215.744 149.44 216.277 149.32 216.771 149.08C217.277 148.827 217.704 148.44 218.051 147.92L219.511 148.84C219.097 149.573 218.511 150.14 217.751 150.54C217.004 150.927 216.151 151.12 215.191 151.12ZM227.66 151.12C226.58 151.12 225.614 150.887 224.76 150.42C223.92 149.953 223.26 149.313 222.78 148.5C222.3 147.687 222.06 146.753 222.06 145.7C222.06 144.647 222.3 143.713 222.78 142.9C223.26 142.087 223.92 141.453 224.76 141C225.614 140.533 226.58 140.3 227.66 140.3C228.62 140.3 229.474 140.493 230.22 140.88C230.98 141.253 231.567 141.813 231.98 142.56L230.52 143.5C230.174 142.98 229.747 142.6 229.24 142.36C228.747 142.107 228.214 141.98 227.64 141.98C226.947 141.98 226.327 142.133 225.78 142.44C225.234 142.747 224.8 143.18 224.48 143.74C224.16 144.287 224 144.94 224 145.7C224 146.46 224.16 147.12 224.48 147.68C224.8 148.24 225.234 148.673 225.78 148.98C226.327 149.287 226.947 149.44 227.64 149.44C228.214 149.44 228.747 149.32 229.24 149.08C229.747 148.827 230.174 148.44 230.52 147.92L231.98 148.84C231.567 149.573 230.98 150.14 230.22 150.54C229.474 150.927 228.62 151.12 227.66 151.12ZM240.23 151.12C239.097 151.12 238.097 150.887 237.23 150.42C236.377 149.953 235.71 149.313 235.23 148.5C234.763 147.687 234.53 146.753 234.53 145.7C234.53 144.647 234.757 143.713 235.21 142.9C235.677 142.087 236.31 141.453 237.11 141C237.923 140.533 238.837 140.3 239.85 140.3C240.877 140.3 241.783 140.527 242.57 140.98C243.357 141.433 243.97 142.073 244.41 142.9C244.863 143.713 245.09 144.667 245.09 145.76C245.09 145.84 245.083 145.933 245.07 146.04C245.07 146.147 245.063 146.247 245.05 146.34H236.03V144.96H244.05L243.27 145.44C243.283 144.76 243.143 144.153 242.85 143.62C242.557 143.087 242.15 142.673 241.63 142.38C241.123 142.073 240.53 141.92 239.85 141.92C239.183 141.92 238.59 142.073 238.07 142.38C237.55 142.673 237.143 143.093 236.85 143.64C236.557 144.173 236.41 144.787 236.41 145.48V145.8C236.41 146.507 236.57 147.14 236.89 147.7C237.223 148.247 237.683 148.673 238.27 148.98C238.857 149.287 239.53 149.44 240.29 149.44C240.917 149.44 241.483 149.333 241.99 149.12C242.51 148.907 242.963 148.587 243.35 148.16L244.41 149.4C243.93 149.96 243.33 150.387 242.61 150.68C241.903 150.973 241.11 151.12 240.23 151.12ZM248.956 151V136.16H250.876V151H248.956ZM260.462 151.12C259.329 151.12 258.329 150.887 257.462 150.42C256.609 149.953 255.942 149.313 255.462 148.5C254.995 147.687 254.762 146.753 254.762 145.7C254.762 144.647 254.989 143.713 255.442 142.9C255.909 142.087 256.542 141.453 257.342 141C258.155 140.533 259.069 140.3 260.082 140.3C261.109 140.3 262.015 140.527 262.802 140.98C263.589 141.433 264.202 142.073 264.642 142.9C265.095 143.713 265.322 144.667 265.322 145.76C265.322 145.84 265.315 145.933 265.302 146.04C265.302 146.147 265.295 146.247 265.282 146.34H256.262V144.96H264.282L263.502 145.44C263.515 144.76 263.375 144.153 263.082 143.62C262.789 143.087 262.382 142.673 261.862 142.38C261.355 142.073 260.762 141.92 260.082 141.92C259.415 141.92 258.822 142.073 258.302 142.38C257.782 142.673 257.375 143.093 257.082 143.64C256.789 144.173 256.642 144.787 256.642 145.48V145.8C256.642 146.507 256.802 147.14 257.122 147.7C257.455 148.247 257.915 148.673 258.502 148.98C259.089 149.287 259.762 149.44 260.522 149.44C261.149 149.44 261.715 149.333 262.222 149.12C262.742 148.907 263.195 148.587 263.582 148.16L264.642 149.4C264.162 149.96 263.562 150.387 262.842 150.68C262.135 150.973 261.342 151.12 260.462 151.12ZM269.188 151V140.4H271.028V143.28L270.848 142.56C271.141 141.827 271.635 141.267 272.328 140.88C273.021 140.493 273.875 140.3 274.888 140.3V142.16C274.808 142.147 274.728 142.14 274.648 142.14C274.581 142.14 274.515 142.14 274.448 142.14C273.421 142.14 272.608 142.447 272.008 143.06C271.408 143.673 271.108 144.56 271.108 145.72V151H269.188ZM284.253 151V148.76L284.153 148.34V144.52C284.153 143.707 283.913 143.08 283.433 142.64C282.966 142.187 282.26 141.96 281.313 141.96C280.686 141.96 280.073 142.067 279.473 142.28C278.873 142.48 278.366 142.753 277.953 143.1L277.153 141.66C277.7 141.22 278.353 140.887 279.113 140.66C279.886 140.42 280.693 140.3 281.533 140.3C282.986 140.3 284.106 140.653 284.893 141.36C285.68 142.067 286.073 143.147 286.073 144.6V151H284.253ZM280.773 151.12C279.986 151.12 279.293 150.987 278.693 150.72C278.106 150.453 277.653 150.087 277.333 149.62C277.013 149.14 276.853 148.6 276.853 148C276.853 147.427 276.986 146.907 277.253 146.44C277.533 145.973 277.98 145.6 278.593 145.32C279.22 145.04 280.06 144.9 281.113 144.9H284.473V146.28H281.193C280.233 146.28 279.586 146.44 279.253 146.76C278.92 147.08 278.753 147.467 278.753 147.92C278.753 148.44 278.96 148.86 279.373 149.18C279.786 149.487 280.36 149.64 281.093 149.64C281.813 149.64 282.44 149.48 282.973 149.16C283.52 148.84 283.913 148.373 284.153 147.76L284.533 149.08C284.28 149.707 283.833 150.207 283.193 150.58C282.553 150.94 281.746 151.12 280.773 151.12ZM294.466 151.12C293.4 151.12 292.573 150.833 291.986 150.26C291.4 149.687 291.106 148.867 291.106 147.8V138.08H293.026V147.72C293.026 148.293 293.166 148.733 293.446 149.04C293.74 149.347 294.153 149.5 294.686 149.5C295.286 149.5 295.786 149.333 296.186 149L296.786 150.38C296.493 150.633 296.14 150.82 295.726 150.94C295.326 151.06 294.906 151.12 294.466 151.12ZM289.306 141.98V140.4H296.066V141.98H289.306ZM304.676 151.12C303.543 151.12 302.543 150.887 301.676 150.42C300.823 149.953 300.156 149.313 299.676 148.5C299.209 147.687 298.976 146.753 298.976 145.7C298.976 144.647 299.203 143.713 299.656 142.9C300.123 142.087 300.756 141.453 301.556 141C302.369 140.533 303.283 140.3 304.296 140.3C305.323 140.3 306.229 140.527 307.016 140.98C307.803 141.433 308.416 142.073 308.856 142.9C309.309 143.713 309.536 144.667 309.536 145.76C309.536 145.84 309.529 145.933 309.516 146.04C309.516 146.147 309.509 146.247 309.496 146.34H300.476V144.96H308.496L307.716 145.44C307.729 144.76 307.589 144.153 307.296 143.62C307.003 143.087 306.596 142.673 306.076 142.38C305.569 142.073 304.976 141.92 304.296 141.92C303.629 141.92 303.036 142.073 302.516 142.38C301.996 142.673 301.589 143.093 301.296 143.64C301.003 144.173 300.856 144.787 300.856 145.48V145.8C300.856 146.507 301.016 147.14 301.336 147.7C301.669 148.247 302.129 148.673 302.716 148.98C303.303 149.287 303.976 149.44 304.736 149.44C305.363 149.44 305.929 149.333 306.436 149.12C306.956 148.907 307.409 148.587 307.796 148.16L308.856 149.4C308.376 149.96 307.776 150.387 307.056 150.68C306.349 150.973 305.556 151.12 304.676 151.12ZM320.433 155C319.926 155 319.433 154.913 318.953 154.74C318.473 154.58 318.06 154.34 317.713 154.02L318.533 152.58C318.8 152.833 319.093 153.027 319.413 153.16C319.733 153.293 320.073 153.36 320.433 153.36C320.9 153.36 321.286 153.24 321.593 153C321.9 152.76 322.186 152.333 322.453 151.72L323.113 150.26L323.313 150.02L327.473 140.4H329.353L324.213 152.06C323.906 152.807 323.56 153.393 323.173 153.82C322.8 154.247 322.386 154.547 321.933 154.72C321.48 154.907 320.98 155 320.433 155ZM322.953 151.34L318.113 140.4H320.113L324.233 149.84L322.953 151.34ZM336.592 151.12C335.525 151.12 334.579 150.887 333.752 150.42C332.925 149.953 332.272 149.313 331.792 148.5C331.312 147.673 331.072 146.74 331.072 145.7C331.072 144.647 331.312 143.713 331.792 142.9C332.272 142.087 332.925 141.453 333.752 141C334.579 140.533 335.525 140.3 336.592 140.3C337.645 140.3 338.585 140.533 339.412 141C340.252 141.453 340.905 142.087 341.372 142.9C341.852 143.7 342.092 144.633 342.092 145.7C342.092 146.753 341.852 147.687 341.372 148.5C340.905 149.313 340.252 149.953 339.412 150.42C338.585 150.887 337.645 151.12 336.592 151.12ZM336.592 149.44C337.272 149.44 337.879 149.287 338.412 148.98C338.959 148.673 339.385 148.24 339.692 147.68C339.999 147.107 340.152 146.447 340.152 145.7C340.152 144.94 339.999 144.287 339.692 143.74C339.385 143.18 338.959 142.747 338.412 142.44C337.879 142.133 337.272 141.98 336.592 141.98C335.912 141.98 335.305 142.133 334.772 142.44C334.239 142.747 333.812 143.18 333.492 143.74C333.172 144.287 333.012 144.94 333.012 145.7C333.012 146.447 333.172 147.107 333.492 147.68C333.812 148.24 334.239 148.673 334.772 148.98C335.305 149.287 335.912 149.44 336.592 149.44ZM350.407 151.12C349.501 151.12 348.701 150.953 348.007 150.62C347.327 150.287 346.794 149.78 346.407 149.1C346.034 148.407 345.847 147.54 345.847 146.5V140.4H347.767V146.28C347.767 147.32 348.014 148.1 348.507 148.62C349.014 149.14 349.721 149.4 350.627 149.4C351.294 149.4 351.874 149.267 352.367 149C352.861 148.72 353.241 148.32 353.507 147.8C353.774 147.267 353.907 146.627 353.907 145.88V140.4H355.827V151H354.007V148.14L354.307 148.9C353.961 149.607 353.441 150.153 352.747 150.54C352.054 150.927 351.274 151.12 350.407 151.12ZM360.683 151V140.4H362.523V143.28L362.343 142.56C362.636 141.827 363.129 141.267 363.823 140.88C364.516 140.493 365.369 140.3 366.383 140.3V142.16C366.303 142.147 366.223 142.14 366.143 142.14C366.076 142.14 366.009 142.14 365.943 142.14C364.916 142.14 364.103 142.447 363.503 143.06C362.903 143.673 362.603 144.56 362.603 145.72V151H360.683ZM376.657 151V136.16H378.577V151H376.657ZM388.163 151.12C387.029 151.12 386.029 150.887 385.163 150.42C384.309 149.953 383.643 149.313 383.163 148.5C382.696 147.687 382.463 146.753 382.463 145.7C382.463 144.647 382.689 143.713 383.143 142.9C383.609 142.087 384.243 141.453 385.043 141C385.856 140.533 386.769 140.3 387.783 140.3C388.809 140.3 389.716 140.527 390.503 140.98C391.289 141.433 391.903 142.073 392.343 142.9C392.796 143.713 393.023 144.667 393.023 145.76C393.023 145.84 393.016 145.933 393.003 146.04C393.003 146.147 392.996 146.247 392.983 146.34H383.963V144.96H391.983L391.203 145.44C391.216 144.76 391.076 144.153 390.783 143.62C390.489 143.087 390.083 142.673 389.563 142.38C389.056 142.073 388.463 141.92 387.783 141.92C387.116 141.92 386.523 142.073 386.003 142.38C385.483 142.673 385.076 143.093 384.783 143.64C384.489 144.173 384.343 144.787 384.343 145.48V145.8C384.343 146.507 384.503 147.14 384.823 147.7C385.156 148.247 385.616 148.673 386.203 148.98C386.789 149.287 387.463 149.44 388.223 149.44C388.849 149.44 389.416 149.333 389.923 149.12C390.443 148.907 390.896 148.587 391.283 148.16L392.343 149.4C391.863 149.96 391.263 150.387 390.543 150.68C389.836 150.973 389.043 151.12 388.163 151.12ZM403.176 151V148.76L403.076 148.34V144.52C403.076 143.707 402.836 143.08 402.356 142.64C401.889 142.187 401.182 141.96 400.236 141.96C399.609 141.96 398.996 142.067 398.396 142.28C397.796 142.48 397.289 142.753 396.876 143.1L396.076 141.66C396.622 141.22 397.276 140.887 398.036 140.66C398.809 140.42 399.616 140.3 400.456 140.3C401.909 140.3 403.029 140.653 403.816 141.36C404.602 142.067 404.996 143.147 404.996 144.6V151H403.176ZM399.696 151.12C398.909 151.12 398.216 150.987 397.616 150.72C397.029 150.453 396.576 150.087 396.256 149.62C395.936 149.14 395.776 148.6 395.776 148C395.776 147.427 395.909 146.907 396.176 146.44C396.456 145.973 396.902 145.6 397.516 145.32C398.142 145.04 398.982 144.9 400.036 144.9H403.396V146.28H400.116C399.156 146.28 398.509 146.44 398.176 146.76C397.842 147.08 397.676 147.467 397.676 147.92C397.676 148.44 397.882 148.86 398.296 149.18C398.709 149.487 399.282 149.64 400.016 149.64C400.736 149.64 401.362 149.48 401.896 149.16C402.442 148.84 402.836 148.373 403.076 147.76L403.456 149.08C403.202 149.707 402.756 150.207 402.116 150.58C401.476 150.94 400.669 151.12 399.696 151.12ZM409.749 151V140.4H411.589V143.28L411.409 142.56C411.702 141.827 412.196 141.267 412.889 140.88C413.582 140.493 414.436 140.3 415.449 140.3V142.16C415.369 142.147 415.289 142.14 415.209 142.14C415.142 142.14 415.076 142.14 415.009 142.14C413.982 142.14 413.169 142.447 412.569 143.06C411.969 143.673 411.669 144.56 411.669 145.72V151H409.749ZM424.675 140.3C425.542 140.3 426.302 140.467 426.955 140.8C427.622 141.133 428.142 141.64 428.515 142.32C428.889 143 429.075 143.86 429.075 144.9V151H427.155V145.12C427.155 144.093 426.902 143.32 426.395 142.8C425.902 142.28 425.202 142.02 424.295 142.02C423.615 142.02 423.022 142.153 422.515 142.42C422.009 142.687 421.615 143.08 421.335 143.6C421.069 144.12 420.935 144.767 420.935 145.54V151H419.015V140.4H420.855V143.26L420.555 142.5C420.902 141.807 421.435 141.267 422.155 140.88C422.875 140.493 423.715 140.3 424.675 140.3ZM433.829 151V140.4H435.749V151H433.829ZM434.789 138.36C434.415 138.36 434.102 138.24 433.849 138C433.609 137.76 433.489 137.467 433.489 137.12C433.489 136.76 433.609 136.46 433.849 136.22C434.102 135.98 434.415 135.86 434.789 135.86C435.162 135.86 435.469 135.98 435.709 136.22C435.962 136.447 436.089 136.733 436.089 137.08C436.089 137.44 435.969 137.747 435.729 138C435.489 138.24 435.175 138.36 434.789 138.36ZM446.275 140.3C447.141 140.3 447.901 140.467 448.555 140.8C449.221 141.133 449.741 141.64 450.115 142.32C450.488 143 450.675 143.86 450.675 144.9V151H448.755V145.12C448.755 144.093 448.501 143.32 447.995 142.8C447.501 142.28 446.801 142.02 445.895 142.02C445.215 142.02 444.621 142.153 444.115 142.42C443.608 142.687 443.215 143.08 442.935 143.6C442.668 144.12 442.535 144.767 442.535 145.54V151H440.615V140.4H442.455V143.26L442.155 142.5C442.501 141.807 443.035 141.267 443.755 140.88C444.475 140.493 445.315 140.3 446.275 140.3ZM460.068 155C459.094 155 458.148 154.86 457.228 154.58C456.321 154.313 455.581 153.927 455.008 153.42L455.928 151.94C456.421 152.367 457.028 152.7 457.748 152.94C458.468 153.193 459.221 153.32 460.008 153.32C461.261 153.32 462.181 153.027 462.768 152.44C463.354 151.853 463.648 150.96 463.648 149.76V147.52L463.848 145.42L463.748 143.3V140.4H465.568V149.56C465.568 151.427 465.101 152.8 464.168 153.68C463.234 154.56 461.868 155 460.068 155ZM459.828 150.56C458.801 150.56 457.881 150.347 457.068 149.92C456.268 149.48 455.628 148.873 455.148 148.1C454.681 147.327 454.448 146.433 454.448 145.42C454.448 144.393 454.681 143.5 455.148 142.74C455.628 141.967 456.268 141.367 457.068 140.94C457.881 140.513 458.801 140.3 459.828 140.3C460.734 140.3 461.561 140.487 462.308 140.86C463.054 141.22 463.648 141.78 464.088 142.54C464.541 143.3 464.768 144.26 464.768 145.42C464.768 146.567 464.541 147.52 464.088 148.28C463.648 149.04 463.054 149.613 462.308 150C461.561 150.373 460.734 150.56 459.828 150.56ZM460.048 148.88C460.754 148.88 461.381 148.733 461.928 148.44C462.474 148.147 462.901 147.74 463.208 147.22C463.528 146.7 463.688 146.1 463.688 145.42C463.688 144.74 463.528 144.14 463.208 143.62C462.901 143.1 462.474 142.7 461.928 142.42C461.381 142.127 460.754 141.98 460.048 141.98C459.341 141.98 458.708 142.127 458.148 142.42C457.601 142.7 457.168 143.1 456.848 143.62C456.541 144.14 456.388 144.74 456.388 145.42C456.388 146.1 456.541 146.7 456.848 147.22C457.168 147.74 457.601 148.147 458.148 148.44C458.708 148.733 459.341 148.88 460.048 148.88Z" fill="#559092"/>
<path d="M150.546 67.0463C151.456 67.8576 151.848 68.7212 152.225 69.8691C152.225 70.0303 152.225 70.1914 152.225 70.3574C152.615 70.3225 152.615 70.3225 153.012 70.2868C157.833 69.8991 162.143 70.7396 166.033 73.7744C169.182 76.4634 171.464 80.2007 171.805 84.3934C171.983 89.0464 171.265 93.2663 168.017 96.8162C166.616 98.2902 165.075 99.7729 163.211 100.631C163.249 100.767 163.287 100.903 163.326 101.043C163.671 102.393 163.795 103.42 163.455 104.781C162.454 106.077 161.245 106.456 159.749 106.96C159.504 107.046 159.259 107.132 159.006 107.22C158.222 107.494 157.436 107.763 156.65 108.031C156.138 108.209 155.627 108.387 155.115 108.565C154.095 108.92 153.073 109.272 152.05 109.622C151.013 109.978 149.979 110.345 148.949 110.72C148.696 110.811 148.444 110.902 148.184 110.996C147.707 111.168 147.231 111.342 146.757 111.519C145.426 111.996 144.362 112.241 142.947 112.105C141.573 111.276 141.211 110.443 140.75 108.932C138.997 109.442 137.269 110.007 135.545 110.604C135.282 110.695 135.019 110.786 134.748 110.879C133.89 111.176 133.032 111.473 132.175 111.77C131.88 111.871 131.586 111.973 131.283 112.078C126.043 113.891 120.812 115.732 115.587 117.589C115.374 117.665 115.161 117.74 114.941 117.818C114.002 118.152 113.065 118.488 112.131 118.834C111.83 118.945 111.529 119.056 111.219 119.17C110.839 119.312 110.839 119.312 110.452 119.457C109.315 119.805 108.227 119.918 107.059 119.674C105.782 118.84 105.672 117.9 105.35 116.5C104.088 116.916 102.826 117.333 101.565 117.751C101.373 117.815 101.18 117.879 100.981 117.945C98.5984 118.736 96.222 119.543 93.854 120.377C93.633 120.455 93.412 120.532 93.1843 120.612C92.1058 120.993 91.0281 121.375 89.9511 121.759C89.5558 121.899 89.1605 122.039 88.7652 122.179C88.587 122.243 88.4089 122.308 88.2253 122.374C85.8267 123.22 85.8267 123.22 84.4451 122.863C83.4062 122.228 83.0159 121.55 82.6445 120.406C82.6445 120.165 82.6445 119.923 82.6445 119.674C81.3217 120.11 79.9993 120.547 78.6772 120.986C78.3813 121.084 78.3813 121.084 78.0793 121.184C75.0593 122.187 72.0559 123.227 69.0692 124.325C68.6773 124.468 68.6773 124.468 68.2774 124.614C68.0508 124.697 67.8242 124.781 67.5907 124.867C67.0195 125.045 67.0195 125.045 66.2871 125.045C66.4759 125.46 66.4759 125.46 66.6686 125.884C67.0759 126.989 67.2396 128.086 66.7754 129.195C65.7156 130.206 64.746 130.716 63.367 131.176C63.184 131.239 63.001 131.303 62.8125 131.368C62.4277 131.5 62.0424 131.631 61.6565 131.76C61.0704 131.957 60.4868 132.16 59.9032 132.364C59.527 132.492 59.1506 132.62 58.7741 132.748C58.6018 132.808 58.4296 132.868 58.2521 132.93C57.058 133.323 56.0702 133.497 54.8125 133.346C53.4064 132.506 52.9915 131.527 52.4894 130.012C52.4166 129.805 52.3439 129.598 52.269 129.385C52.0341 128.713 51.8057 128.039 51.5776 127.364C51.4173 126.9 51.2566 126.436 51.0955 125.972C50.7737 125.043 50.4545 124.114 50.137 123.183C49.7376 122.017 49.3241 120.855 48.9045 119.696C48.7889 119.373 48.6734 119.05 48.5581 118.728C48.3495 118.145 48.1391 117.563 47.9263 116.982C47.4167 115.532 46.9347 114.139 47.2441 112.594C47.9037 111.343 48.8916 111 50.1586 110.549C50.3488 110.479 50.539 110.409 50.7349 110.336C51.1444 110.187 51.5546 110.04 51.9654 109.894C52.4081 109.737 52.8498 109.578 53.2908 109.417C53.9693 109.169 54.6498 108.927 55.3313 108.687C55.5421 108.611 55.753 108.534 55.9702 108.454C57.3327 107.99 58.2836 107.876 59.6953 108.199C60.9422 109.094 61.082 109.955 61.4043 111.373C63.2296 110.745 65.0548 110.117 66.8798 109.488C67.7273 109.197 68.5749 108.905 69.4225 108.613C70.241 108.332 71.0594 108.05 71.8777 107.768C72.3408 107.608 72.804 107.449 73.2672 107.29C73.5506 107.192 73.834 107.095 74.126 106.994C74.3749 106.908 74.6237 106.823 74.8801 106.734C75.331 106.574 75.7777 106.4 76.2189 106.215C76.7852 106.002 76.7852 106.002 77.5176 106.002C77.437 105.765 77.3564 105.529 77.2734 105.285C76.9823 104.245 76.807 103.162 77.0293 102.096C77.8411 100.717 78.9752 100.417 80.4158 99.9337C80.6557 99.8498 80.8956 99.7659 81.1427 99.6795C81.9218 99.4079 82.7027 99.142 83.4838 98.8761C84.0173 98.6914 84.5508 98.5064 85.0842 98.3211C86.141 97.9546 87.1987 97.5902 88.257 97.2279C89.5258 96.7935 90.7925 96.3535 92.0583 95.9102C94.5225 95.0495 94.5225 95.0495 95.6202 94.6713C95.9494 94.5575 95.9494 94.5575 96.2853 94.4415C96.8047 94.2832 96.8047 94.2832 97.293 94.2832C97.2124 94.0415 97.1318 93.7998 97.0488 93.5508C96.7082 92.3403 96.5587 91.1779 97.0817 89.9941C97.666 89.2324 98.1428 89.0549 99.0411 88.7214C99.1993 88.6617 99.3575 88.6021 99.5205 88.5407C100.078 88.3332 100.638 88.1337 101.199 87.9355C101.413 87.8595 101.626 87.7835 101.847 87.7052C103.342 87.1751 104.842 86.6568 106.343 86.1422C107.468 85.7567 108.592 85.3691 109.715 84.9817C110.286 84.7849 110.857 84.5883 111.428 84.3918C114.017 83.4998 116.604 82.5999 119.189 81.6947C119.388 81.6253 119.586 81.5559 119.79 81.4843C123.122 80.3176 126.446 79.1327 129.764 77.9258C129.685 77.6617 129.607 77.3977 129.526 77.1256C129.262 76.169 129.15 75.4928 129.275 74.5078C130.095 73.3323 130.699 72.8446 132.081 72.3773C132.246 72.3199 132.41 72.2626 132.58 72.2035C132.963 72.0699 133.347 71.9382 133.732 71.8079C134.491 71.5478 135.246 71.2772 136.001 71.0052C137.362 70.515 138.726 70.0297 140.09 69.5481C140.886 69.2671 141.682 68.9851 142.477 68.701C143.407 68.3687 144.337 68.0402 145.269 67.7119C145.553 67.6097 145.838 67.5075 146.131 67.4022C146.397 67.3092 146.663 67.2161 146.937 67.1203C147.169 67.038 147.401 66.9556 147.64 66.8708C148.735 66.5876 149.515 66.5721 150.546 67.0463ZM145.468 73.3738C145.243 73.4521 145.018 73.5303 144.786 73.6109C144.546 73.6976 144.305 73.7843 144.057 73.8736C143.686 74.0042 143.686 74.0042 143.306 74.1374C142.514 74.4161 141.724 74.6984 140.933 74.9808C140.397 75.1704 139.86 75.3597 139.323 75.5487C138.008 76.0128 136.693 76.4799 135.379 76.9492C136.88 81.5462 138.474 86.1071 140.096 90.6626C141.006 93.2183 141.909 95.7761 142.792 98.3411C142.876 98.5862 142.961 98.8313 143.048 99.0838C143.709 100.998 143.709 100.998 144.024 101.923C144.243 102.565 144.464 103.208 144.686 103.85C144.75 104.041 144.815 104.232 144.881 104.429C145.152 105.394 145.152 105.394 145.877 106.002C146.385 105.892 146.385 105.892 146.959 105.687C147.183 105.612 147.407 105.536 147.638 105.459C147.881 105.375 148.123 105.292 148.373 105.206C148.621 105.121 148.869 105.036 149.124 104.949C149.649 104.769 150.174 104.587 150.699 104.405C151.504 104.126 152.311 103.854 153.118 103.582C153.627 103.406 154.135 103.23 154.644 103.054C154.887 102.973 155.13 102.892 155.38 102.808C155.715 102.69 155.715 102.69 156.057 102.569C156.254 102.501 156.452 102.433 156.655 102.363C157.138 102.133 157.138 102.133 157.32 101.661C157.361 100.953 157.193 100.463 156.956 99.7939C156.862 99.5259 156.769 99.2578 156.673 98.9815C156.568 98.6896 156.463 98.3977 156.355 98.0969C156.246 97.7873 156.137 97.4775 156.028 97.1677C155.735 96.3326 155.438 95.4986 155.141 94.6649C154.833 93.7994 154.526 92.933 154.22 92.0667C153.845 91.0062 153.47 89.9457 153.093 88.8857C152.382 86.8819 151.679 84.8753 150.99 82.8638C150.592 81.7032 150.191 80.5436 149.79 79.384C149.603 78.8397 149.416 78.2949 149.232 77.7497C148.976 76.9965 148.715 76.2451 148.454 75.4939C148.38 75.2716 148.306 75.0493 148.229 74.8203C148.159 74.6201 148.088 74.42 148.015 74.2137C147.925 73.9523 147.925 73.9523 147.834 73.6857C147.614 73.2504 147.614 73.2504 147.142 73.0864C146.494 73.0335 146.081 73.1566 145.468 73.3738ZM154.178 75.7285C154.717 77.8532 155.405 79.9138 156.131 81.9808C156.249 82.3177 156.366 82.6546 156.484 82.9915C156.729 83.6926 156.974 84.3935 157.22 85.0942C157.534 85.9882 157.846 86.8828 158.158 87.7775C158.4 88.4713 158.643 89.165 158.886 89.8586C159.001 90.1883 159.116 90.518 159.231 90.8478C160.053 93.2032 160.053 93.2032 161.014 95.5039C163.671 93.9095 165.498 91.5625 166.305 88.5421C166.731 85.3151 166.222 82.5129 164.311 79.8541C162.307 77.3307 159.775 75.9378 156.589 75.5607C155.722 75.4679 155.028 75.5464 154.178 75.7285ZM129.894 83.6344C129.677 83.7092 129.461 83.7839 129.237 83.8609C128.884 83.9853 128.884 83.9853 128.524 84.1123C128.275 84.1986 128.026 84.2849 127.77 84.3739C126.949 84.6593 126.128 84.947 125.308 85.2347C124.738 85.4334 124.168 85.632 123.599 85.8305C118.516 87.6028 113.44 89.3915 108.371 91.2014C107.413 91.5433 106.455 91.8828 105.492 92.2122C105.331 92.2681 105.169 92.3239 105.003 92.3815C104.582 92.5268 104.16 92.6704 103.738 92.8138C103.116 93.0032 103.116 93.0032 102.908 93.5508C103.025 94.0678 103.025 94.0678 103.241 94.6554C103.321 94.8861 103.4 95.1168 103.482 95.3545C103.571 95.6065 103.66 95.8585 103.751 96.1181C103.842 96.3797 103.933 96.6414 104.026 96.9109C104.323 97.765 104.623 98.6181 104.922 99.4712C105.125 100.052 105.328 100.633 105.53 101.214C106.974 105.349 108.451 109.47 109.988 113.57C111.787 113.101 113.546 112.564 115.301 111.951C115.548 111.866 115.794 111.78 116.048 111.692C116.851 111.414 117.654 111.134 118.457 110.854C119.018 110.659 119.579 110.464 120.14 110.27C124.064 108.905 127.983 107.526 131.9 106.139C132.15 106.051 132.399 105.962 132.657 105.871C133.364 105.62 134.072 105.369 134.78 105.118C134.986 105.045 135.192 104.972 135.404 104.897C136.621 104.463 137.833 104.017 139.041 103.561C136.742 96.7844 134.36 90.0383 131.961 83.2969C131.101 83.2969 130.676 83.3617 129.894 83.6344ZM97.3866 99.7718C97.1582 99.8509 96.9298 99.9301 96.6944 100.012C96.4473 100.099 96.2001 100.186 95.9454 100.275C95.689 100.364 95.4327 100.454 95.1685 100.546C94.3453 100.832 93.5227 101.121 92.7001 101.409C92.156 101.599 91.612 101.788 91.0679 101.978C88.419 102.902 85.7722 103.831 83.1328 104.781C83.6978 107.071 84.4593 109.291 85.2363 111.515C85.4543 112.142 85.6683 112.77 85.8823 113.399C86.0209 113.797 86.1598 114.196 86.299 114.595C86.394 114.876 86.394 114.876 86.491 115.164C86.652 115.618 86.8431 116.06 87.0391 116.5C87.9278 116.796 88.1817 116.664 89.0524 116.362C89.3141 116.272 89.5758 116.182 89.8454 116.09C90.1284 115.99 90.4115 115.89 90.7031 115.788C90.9949 115.687 91.2867 115.586 91.5873 115.482C92.2063 115.267 92.8248 115.051 93.443 114.834C94.2294 114.558 95.0167 114.285 95.8044 114.013C96.561 113.751 97.3171 113.488 98.0731 113.224C98.3532 113.127 98.6332 113.03 98.9218 112.93C100.447 112.394 101.933 111.817 103.396 111.129C103.003 109.93 102.608 108.732 102.212 107.535C102.078 107.129 101.944 106.722 101.811 106.316C101.041 103.972 100.247 101.667 99.2461 99.4102C98.5076 99.4102 98.0769 99.5307 97.3866 99.7718ZM77.4258 111.515C77.1633 111.606 76.9009 111.696 76.6305 111.79C76.2066 111.94 76.2066 111.94 75.7743 112.094C75.4822 112.196 75.1902 112.297 74.8893 112.402C74.1124 112.673 73.3363 112.946 72.5605 113.22C71.7769 113.496 70.9922 113.769 70.2077 114.042C66.7712 115.24 66.7712 115.24 63.3574 116.5C63.4742 116.932 63.5912 117.365 63.7084 117.797C63.7735 118.038 63.8387 118.279 63.9058 118.527C64.0363 118.994 64.1805 119.458 64.334 119.918C66.0388 119.575 67.6452 119.083 69.2855 118.508C69.5427 118.419 69.7999 118.33 70.0649 118.238C70.6059 118.051 71.1468 117.862 71.6874 117.673C72.5097 117.386 73.3327 117.101 74.1559 116.817C74.6839 116.633 75.212 116.449 75.7399 116.265C75.9834 116.181 76.2268 116.097 76.4776 116.01C77.9155 115.506 79.3103 114.947 80.6914 114.303C80.554 113.818 80.4104 113.335 80.2642 112.853C80.1849 112.584 80.1055 112.315 80.0238 112.038C79.7939 111.352 79.7939 111.352 79.2893 111.185C78.5729 111.112 78.1053 111.277 77.4258 111.515ZM54.6447 114.791C54.4156 114.877 54.1866 114.963 53.9506 115.052C53.7516 115.127 53.5526 115.202 53.3477 115.279C53.9104 117.572 54.6822 119.789 55.4645 122.013C55.6845 122.641 55.9016 123.269 56.1186 123.897C56.2581 124.295 56.3978 124.694 56.5377 125.093C56.6346 125.374 56.6346 125.374 56.7335 125.662C57.0129 126.63 57.0129 126.63 57.7422 127.242C58.2462 127.103 58.7443 126.942 59.2376 126.769C59.5051 126.676 59.7726 126.583 60.0482 126.488C60.254 126.415 60.4598 126.341 60.6719 126.266C60.5239 124.85 60.1432 123.607 59.6648 122.271C59.5899 122.058 59.5149 121.844 59.4377 121.625C59.1995 120.948 58.9591 120.273 58.7188 119.598C58.5571 119.139 58.3956 118.68 58.2343 118.222C57.9394 117.386 57.6445 116.551 57.3474 115.716C57.2879 115.549 57.2285 115.381 57.1672 115.209C57.011 114.772 57.011 114.772 56.7656 114.303C55.9417 114.303 55.4132 114.502 54.6447 114.791Z" fill="#559092"/>
<path d="M129.031 115.523C129.903 116.154 130.196 116.55 130.496 117.583C130.496 118.607 130.343 119.077 129.764 119.918C128.39 121.046 126.731 121.487 125.064 122.039C124.488 122.233 123.912 122.427 123.336 122.622C122.955 122.748 122.955 122.748 122.566 122.878C121.962 123.073 121.962 123.073 121.463 123.336C123.335 126.294 125.223 129.24 127.139 132.168C128.269 133.897 129.385 135.633 130.496 137.374C132.071 139.841 133.664 142.296 135.265 144.746C136.342 146.392 137.41 148.044 138.477 149.696C138.918 150.379 139.36 151.062 139.802 151.745C140.026 152.091 140.251 152.438 140.475 152.785C141.037 153.653 141.599 154.521 142.162 155.388C142.722 156.248 143.278 157.11 143.833 157.973C144.061 158.326 144.29 158.678 144.519 159.03C144.862 159.556 145.202 160.085 145.541 160.613C145.697 160.85 145.697 160.85 145.857 161.092C146.443 162.014 146.79 162.767 146.854 163.863C146.557 164.891 146.328 165.418 145.465 166.061C144.462 166.363 143.677 166.449 142.703 166.061C141.17 164.901 140.252 162.968 139.264 161.351C138.472 160.061 137.643 158.796 136.813 157.531C135.509 155.54 134.218 153.541 132.937 151.534C131.363 149.067 129.77 146.612 128.168 144.162C127.09 142.513 126.02 140.859 124.951 139.203C124.639 138.72 124.325 138.237 124.012 137.754C122.983 136.166 121.957 134.577 120.939 132.982C120.852 132.845 120.764 132.708 120.673 132.566C120.236 131.88 119.798 131.194 119.362 130.508C119.202 130.257 119.042 130.006 118.877 129.747C118.734 129.523 118.591 129.299 118.444 129.068C118.057 128.463 118.057 128.463 117.627 127.925C117.312 127.486 117.312 127.486 117.312 126.998C117.151 126.998 116.99 126.998 116.824 126.998C116.761 127.171 116.699 127.345 116.634 127.523C116.313 128.272 115.924 128.901 115.475 129.581C115.303 129.842 115.131 130.103 114.954 130.372C114.768 130.651 114.583 130.93 114.398 131.209C114.208 131.497 114.019 131.785 113.829 132.073C113.453 132.644 113.077 133.214 112.7 133.785C112.045 134.779 111.397 135.778 110.751 136.779C110.646 136.941 110.541 137.104 110.433 137.271C110.226 137.592 110.019 137.913 109.812 138.233C109.374 138.912 108.935 139.59 108.496 140.268C108.158 140.791 107.819 141.314 107.481 141.837C107.05 142.504 106.618 143.17 106.186 143.836C104.862 145.878 103.547 147.927 102.237 149.978C100.642 152.473 99.0311 154.957 97.4103 157.435C96.7485 158.447 96.0917 159.462 95.4374 160.479C91.9157 165.95 91.9157 165.95 90.5028 166.274C89.4802 166.361 88.8562 166.198 88.0156 165.572C87.531 164.744 87.2691 164.169 87.3137 163.203C87.6021 162.117 88.1324 161.281 88.7328 160.339C88.9138 160.048 88.9138 160.048 89.0985 159.753C90.0501 158.237 91.0366 156.746 92.0373 155.262C92.6976 154.282 93.3408 153.29 93.9818 152.297C94.0935 152.124 94.2053 151.951 94.3204 151.773C94.547 151.421 94.7737 151.07 95.0002 150.718C95.5599 149.85 96.1214 148.983 96.6826 148.116C96.9064 147.77 97.1302 147.424 97.354 147.079C98.6968 145.003 98.6968 145.003 99.0322 144.485C99.257 144.138 99.4818 143.79 99.7065 143.443C100.25 142.602 100.794 141.762 101.339 140.922C102.341 139.376 103.341 137.829 104.331 136.276C106.266 133.243 108.221 130.226 110.232 127.242C110.041 127.313 109.849 127.383 109.652 127.456C106.901 128.428 106.901 128.428 105.594 128.219C104.765 127.796 104.27 127.47 103.778 126.678C103.543 125.554 103.659 124.676 104.267 123.697C105.014 122.936 105.79 122.648 106.779 122.317C106.973 122.249 107.167 122.181 107.367 122.11C108.01 121.884 108.656 121.664 109.302 121.444C109.754 121.287 110.206 121.13 110.659 120.972C111.627 120.635 112.597 120.301 113.567 119.967C114.902 119.506 116.233 119.032 117.563 118.555C118.648 118.165 119.734 117.779 120.821 117.393C121.349 117.205 121.876 117.016 122.402 116.826C123.144 116.558 123.887 116.296 124.631 116.035C124.85 115.954 125.069 115.874 125.295 115.791C126.663 115.318 127.612 115.194 129.031 115.523Z" fill="#559092"/>
</svg>
