<svg width="421" height="125" viewBox="0 0 421 125" fill="none" xmlns="http://www.w3.org/2000/svg">
<path d="M161.168 55.672C158.416 55.672 155.76 55.336 153.2 54.664C150.672 53.96 148.608 53.064 147.008 51.976L150.128 44.968C151.632 45.928 153.36 46.728 155.312 47.368C157.296 47.976 159.264 48.28 161.216 48.28C162.528 48.28 163.584 48.168 164.384 47.944C165.184 47.688 165.76 47.368 166.112 46.984C166.496 46.568 166.688 46.088 166.688 45.544C166.688 44.776 166.336 44.168 165.632 43.72C164.928 43.272 164.016 42.904 162.896 42.616C161.776 42.328 160.528 42.04 159.152 41.752C157.808 41.464 156.448 41.096 155.072 40.648C153.728 40.2 152.496 39.624 151.376 38.92C150.256 38.184 149.344 37.24 148.64 36.088C147.936 34.904 147.584 33.416 147.584 31.624C147.584 29.608 148.128 27.784 149.216 26.152C150.336 24.52 152 23.208 154.208 22.216C156.416 21.224 159.168 20.728 162.464 20.728C164.672 20.728 166.832 20.984 168.944 21.496C171.088 21.976 172.992 22.696 174.656 23.656L171.728 30.712C170.128 29.848 168.544 29.208 166.976 28.792C165.408 28.344 163.888 28.12 162.416 28.12C161.104 28.12 160.048 28.264 159.248 28.552C158.448 28.808 157.872 29.16 157.52 29.608C157.168 30.056 156.992 30.568 156.992 31.144C156.992 31.88 157.328 32.472 158 32.92C158.704 33.336 159.616 33.688 160.736 33.976C161.888 34.232 163.136 34.504 164.48 34.792C165.856 35.08 167.216 35.448 168.56 35.896C169.936 36.312 171.184 36.888 172.304 37.624C173.424 38.328 174.32 39.272 174.992 40.456C175.696 41.608 176.048 43.064 176.048 44.824C176.048 46.776 175.488 48.584 174.368 50.248C173.28 51.88 171.632 53.192 169.424 54.184C167.248 55.176 164.496 55.672 161.168 55.672ZM184.001 64.744C182.625 64.744 181.233 64.52 179.825 64.072C178.449 63.656 177.329 63.096 176.465 62.392L179.633 56.008C180.177 56.488 180.801 56.856 181.505 57.112C182.241 57.4 182.961 57.544 183.665 57.544C184.657 57.544 185.441 57.32 186.017 56.872C186.593 56.424 187.089 55.72 187.505 54.76L188.705 51.736L189.425 50.824L198.257 28.984H206.945L195.713 56.056C194.817 58.296 193.777 60.04 192.593 61.288C191.441 62.568 190.145 63.464 188.705 63.976C187.297 64.488 185.729 64.744 184.001 64.744ZM187.553 56.104L176.081 28.984H185.441L193.889 50.008L187.553 56.104ZM226.247 28.552C228.263 28.552 230.087 28.968 231.719 29.8C233.351 30.6 234.631 31.848 235.559 33.544C236.519 35.24 236.999 37.432 236.999 40.12V55H227.879V41.608C227.879 39.752 227.495 38.408 226.727 37.576C225.991 36.712 224.951 36.28 223.607 36.28C222.647 36.28 221.767 36.504 220.967 36.952C220.167 37.368 219.543 38.024 219.095 38.92C218.647 39.816 218.423 40.984 218.423 42.424V55H209.303V28.984H217.991V36.376L216.311 34.216C217.303 32.328 218.663 30.92 220.391 29.992C222.119 29.032 224.071 28.552 226.247 28.552ZM258.613 55V50.152L257.989 48.952V40.024C257.989 38.584 257.541 37.48 256.645 36.712C255.781 35.912 254.389 35.512 252.469 35.512C251.221 35.512 249.957 35.72 248.677 36.136C247.397 36.52 246.309 37.064 245.413 37.768L242.341 31.576C243.813 30.616 245.573 29.88 247.621 29.368C249.701 28.824 251.765 28.552 253.813 28.552C258.037 28.552 261.301 29.528 263.605 31.48C265.941 33.4 267.109 36.424 267.109 40.552V55H258.613ZM250.933 55.432C248.853 55.432 247.093 55.08 245.653 54.376C244.213 53.672 243.109 52.712 242.341 51.496C241.605 50.28 241.237 48.92 241.237 47.416C241.237 45.816 241.637 44.44 242.437 43.288C243.269 42.104 244.533 41.208 246.229 40.6C247.925 39.96 250.117 39.64 252.805 39.64H258.949V44.392H254.053C252.581 44.392 251.541 44.632 250.933 45.112C250.357 45.592 250.069 46.232 250.069 47.032C250.069 47.832 250.373 48.472 250.981 48.952C251.589 49.432 252.421 49.672 253.477 49.672C254.469 49.672 255.365 49.432 256.165 48.952C256.997 48.44 257.605 47.672 257.989 46.648L259.237 50.008C258.757 51.8 257.813 53.16 256.405 54.088C255.029 54.984 253.205 55.432 250.933 55.432ZM289.234 55.432C287.026 55.432 285.138 54.952 283.57 53.992C282.002 53 280.802 51.528 279.97 49.576C279.17 47.592 278.77 45.064 278.77 41.992C278.77 38.888 279.154 36.36 279.922 34.408C280.69 32.424 281.842 30.952 283.378 29.992C284.946 29.032 286.898 28.552 289.234 28.552C291.602 28.552 293.746 29.112 295.666 30.232C297.618 31.32 299.154 32.872 300.274 34.888C301.426 36.872 302.002 39.24 302.002 41.992C302.002 44.744 301.426 47.128 300.274 49.144C299.154 51.16 297.618 52.712 295.666 53.8C293.746 54.888 291.602 55.432 289.234 55.432ZM272.866 64.312V28.984H281.554V33.4L281.506 41.992L281.986 50.632V64.312H272.866ZM287.314 48.184C288.338 48.184 289.25 47.944 290.05 47.464C290.882 46.984 291.538 46.28 292.018 45.352C292.53 44.424 292.786 43.304 292.786 41.992C292.786 40.68 292.53 39.56 292.018 38.632C291.538 37.704 290.882 37 290.05 36.52C289.25 36.04 288.338 35.8 287.314 35.8C286.29 35.8 285.362 36.04 284.53 36.52C283.73 37 283.074 37.704 282.562 38.632C282.082 39.56 281.842 40.68 281.842 41.992C281.842 43.304 282.082 44.424 282.562 45.352C283.074 46.28 283.73 46.984 284.53 47.464C285.362 47.944 286.29 48.184 287.314 48.184ZM315.697 55.432C313.489 55.432 311.329 55.176 309.217 54.664C307.137 54.152 305.457 53.512 304.177 52.744L306.913 46.504C308.129 47.24 309.553 47.832 311.185 48.28C312.817 48.696 314.417 48.904 315.984 48.904C317.521 48.904 318.577 48.744 319.153 48.424C319.761 48.104 320.065 47.672 320.065 47.128C320.065 46.616 319.777 46.248 319.201 46.024C318.657 45.768 317.921 45.576 316.993 45.448C316.097 45.32 315.105 45.176 314.017 45.016C312.929 44.856 311.825 44.648 310.705 44.392C309.617 44.104 308.609 43.688 307.681 43.144C306.785 42.568 306.065 41.8 305.521 40.84C304.977 39.88 304.705 38.664 304.705 37.192C304.705 35.528 305.185 34.056 306.145 32.776C307.137 31.464 308.577 30.44 310.465 29.704C312.353 28.936 314.657 28.552 317.377 28.552C319.201 28.552 321.041 28.744 322.897 29.128C324.785 29.48 326.369 30.024 327.649 30.76L324.913 36.952C323.633 36.216 322.353 35.72 321.073 35.464C319.793 35.176 318.577 35.032 317.424 35.032C315.889 35.032 314.801 35.208 314.161 35.56C313.553 35.912 313.249 36.344 313.249 36.856C313.249 37.368 313.521 37.768 314.065 38.056C314.609 38.312 315.329 38.52 316.225 38.68C317.153 38.808 318.161 38.952 319.249 39.112C320.337 39.24 321.425 39.448 322.513 39.736C323.633 40.024 324.641 40.456 325.537 41.032C326.465 41.576 327.201 42.328 327.745 43.288C328.289 44.216 328.561 45.416 328.561 46.888C328.561 48.488 328.065 49.928 327.073 51.208C326.113 52.488 324.673 53.512 322.753 54.28C320.865 55.048 318.513 55.432 315.697 55.432ZM346.123 55.432C343.051 55.432 340.363 54.856 338.059 53.704C335.787 52.52 334.011 50.92 332.73 48.904C331.483 46.856 330.859 44.536 330.859 41.944C330.859 39.352 331.467 37.048 332.683 35.032C333.931 32.984 335.643 31.4 337.819 30.28C339.995 29.128 342.443 28.552 345.163 28.552C347.723 28.552 350.059 29.08 352.171 30.136C354.283 31.16 355.963 32.68 357.211 34.696C358.459 36.712 359.083 39.16 359.083 42.04C359.083 42.36 359.067 42.728 359.035 43.144C359.003 43.56 358.971 43.944 358.939 44.296H338.347V39.496H354.091L350.635 40.84C350.667 39.656 350.443 38.632 349.963 37.768C349.515 36.904 348.875 36.232 348.043 35.752C347.243 35.272 346.299 35.032 345.211 35.032C344.123 35.032 343.163 35.272 342.331 35.752C341.531 36.232 340.907 36.92 340.459 37.816C340.011 38.68 339.787 39.704 339.787 40.888V42.28C339.787 43.56 340.043 44.664 340.555 45.592C341.099 46.52 341.867 47.24 342.859 47.752C343.851 48.232 345.035 48.472 346.411 48.472C347.691 48.472 348.779 48.296 349.675 47.944C350.603 47.56 351.515 46.984 352.411 46.216L357.211 51.208C355.963 52.584 354.427 53.64 352.603 54.376C350.779 55.08 348.619 55.432 346.123 55.432Z" fill="#559092"/>
<path d="M145.98 97L152.32 83H154.3L160.66 97H158.56L152.9 84.12H153.7L148.04 97H145.98ZM148.68 93.5L149.22 91.9H157.1L157.68 93.5H148.68ZM168.191 97.12C167.111 97.12 166.144 96.8867 165.291 96.42C164.451 95.9533 163.791 95.3133 163.311 94.5C162.831 93.6867 162.591 92.7533 162.591 91.7C162.591 90.6467 162.831 89.7133 163.311 88.9C163.791 88.0867 164.451 87.4533 165.291 87C166.144 86.5333 167.111 86.3 168.191 86.3C169.151 86.3 170.004 86.4933 170.751 86.88C171.511 87.2533 172.097 87.8133 172.511 88.56L171.051 89.5C170.704 88.98 170.277 88.6 169.771 88.36C169.277 88.1067 168.744 87.98 168.171 87.98C167.477 87.98 166.857 88.1333 166.311 88.44C165.764 88.7467 165.331 89.18 165.011 89.74C164.691 90.2867 164.531 90.94 164.531 91.7C164.531 92.46 164.691 93.12 165.011 93.68C165.331 94.24 165.764 94.6733 166.311 94.98C166.857 95.2867 167.477 95.44 168.171 95.44C168.744 95.44 169.277 95.32 169.771 95.08C170.277 94.8267 170.704 94.44 171.051 93.92L172.511 94.84C172.097 95.5733 171.511 96.14 170.751 96.54C170.004 96.9267 169.151 97.12 168.191 97.12ZM180.66 97.12C179.58 97.12 178.614 96.8867 177.76 96.42C176.92 95.9533 176.26 95.3133 175.78 94.5C175.3 93.6867 175.06 92.7533 175.06 91.7C175.06 90.6467 175.3 89.7133 175.78 88.9C176.26 88.0867 176.92 87.4533 177.76 87C178.614 86.5333 179.58 86.3 180.66 86.3C181.62 86.3 182.474 86.4933 183.22 86.88C183.98 87.2533 184.567 87.8133 184.98 88.56L183.52 89.5C183.174 88.98 182.747 88.6 182.24 88.36C181.747 88.1067 181.214 87.98 180.64 87.98C179.947 87.98 179.327 88.1333 178.78 88.44C178.234 88.7467 177.8 89.18 177.48 89.74C177.16 90.2867 177 90.94 177 91.7C177 92.46 177.16 93.12 177.48 93.68C177.8 94.24 178.234 94.6733 178.78 94.98C179.327 95.2867 179.947 95.44 180.64 95.44C181.214 95.44 181.747 95.32 182.24 95.08C182.747 94.8267 183.174 94.44 183.52 93.92L184.98 94.84C184.567 95.5733 183.98 96.14 183.22 96.54C182.474 96.9267 181.62 97.12 180.66 97.12ZM193.23 97.12C192.097 97.12 191.097 96.8867 190.23 96.42C189.377 95.9533 188.71 95.3133 188.23 94.5C187.763 93.6867 187.53 92.7533 187.53 91.7C187.53 90.6467 187.757 89.7133 188.21 88.9C188.677 88.0867 189.31 87.4533 190.11 87C190.923 86.5333 191.837 86.3 192.85 86.3C193.877 86.3 194.783 86.5267 195.57 86.98C196.357 87.4333 196.97 88.0733 197.41 88.9C197.863 89.7133 198.09 90.6667 198.09 91.76C198.09 91.84 198.083 91.9333 198.07 92.04C198.07 92.1467 198.063 92.2467 198.05 92.34H189.03V90.96H197.05L196.27 91.44C196.283 90.76 196.143 90.1533 195.85 89.62C195.557 89.0867 195.15 88.6733 194.63 88.38C194.123 88.0733 193.53 87.92 192.85 87.92C192.183 87.92 191.59 88.0733 191.07 88.38C190.55 88.6733 190.143 89.0933 189.85 89.64C189.557 90.1733 189.41 90.7867 189.41 91.48V91.8C189.41 92.5067 189.57 93.14 189.89 93.7C190.223 94.2467 190.683 94.6733 191.27 94.98C191.857 95.2867 192.53 95.44 193.29 95.44C193.917 95.44 194.483 95.3333 194.99 95.12C195.51 94.9067 195.963 94.5867 196.35 94.16L197.41 95.4C196.93 95.96 196.33 96.3867 195.61 96.68C194.903 96.9733 194.11 97.12 193.23 97.12ZM201.956 97V82.16H203.876V97H201.956ZM213.462 97.12C212.329 97.12 211.329 96.8867 210.462 96.42C209.609 95.9533 208.942 95.3133 208.462 94.5C207.995 93.6867 207.762 92.7533 207.762 91.7C207.762 90.6467 207.989 89.7133 208.442 88.9C208.909 88.0867 209.542 87.4533 210.342 87C211.155 86.5333 212.069 86.3 213.082 86.3C214.109 86.3 215.015 86.5267 215.802 86.98C216.589 87.4333 217.202 88.0733 217.642 88.9C218.095 89.7133 218.322 90.6667 218.322 91.76C218.322 91.84 218.315 91.9333 218.302 92.04C218.302 92.1467 218.295 92.2467 218.282 92.34H209.262V90.96H217.282L216.502 91.44C216.515 90.76 216.375 90.1533 216.082 89.62C215.789 89.0867 215.382 88.6733 214.862 88.38C214.355 88.0733 213.762 87.92 213.082 87.92C212.415 87.92 211.822 88.0733 211.302 88.38C210.782 88.6733 210.375 89.0933 210.082 89.64C209.789 90.1733 209.642 90.7867 209.642 91.48V91.8C209.642 92.5067 209.802 93.14 210.122 93.7C210.455 94.2467 210.915 94.6733 211.502 94.98C212.089 95.2867 212.762 95.44 213.522 95.44C214.149 95.44 214.715 95.3333 215.222 95.12C215.742 94.9067 216.195 94.5867 216.582 94.16L217.642 95.4C217.162 95.96 216.562 96.3867 215.842 96.68C215.135 96.9733 214.342 97.12 213.462 97.12ZM222.188 97V86.4H224.028V89.28L223.848 88.56C224.141 87.8267 224.635 87.2667 225.328 86.88C226.021 86.4933 226.875 86.3 227.888 86.3V88.16C227.808 88.1467 227.728 88.14 227.648 88.14C227.581 88.14 227.515 88.14 227.448 88.14C226.421 88.14 225.608 88.4467 225.008 89.06C224.408 89.6733 224.108 90.56 224.108 91.72V97H222.188ZM237.253 97V94.76L237.153 94.34V90.52C237.153 89.7067 236.913 89.08 236.433 88.64C235.966 88.1867 235.26 87.96 234.313 87.96C233.686 87.96 233.073 88.0667 232.473 88.28C231.873 88.48 231.366 88.7533 230.953 89.1L230.153 87.66C230.7 87.22 231.353 86.8867 232.113 86.66C232.886 86.42 233.693 86.3 234.533 86.3C235.986 86.3 237.106 86.6533 237.893 87.36C238.68 88.0667 239.073 89.1467 239.073 90.6V97H237.253ZM233.773 97.12C232.986 97.12 232.293 96.9867 231.693 96.72C231.106 96.4533 230.653 96.0867 230.333 95.62C230.013 95.14 229.853 94.6 229.853 94C229.853 93.4267 229.986 92.9067 230.253 92.44C230.533 91.9733 230.98 91.6 231.593 91.32C232.22 91.04 233.06 90.9 234.113 90.9H237.473V92.28H234.193C233.233 92.28 232.586 92.44 232.253 92.76C231.92 93.08 231.753 93.4667 231.753 93.92C231.753 94.44 231.96 94.86 232.373 95.18C232.786 95.4867 233.36 95.64 234.093 95.64C234.813 95.64 235.44 95.48 235.973 95.16C236.52 94.84 236.913 94.3733 237.153 93.76L237.533 95.08C237.28 95.7067 236.833 96.2067 236.193 96.58C235.553 96.94 234.746 97.12 233.773 97.12ZM247.466 97.12C246.4 97.12 245.573 96.8333 244.986 96.26C244.4 95.6867 244.106 94.8667 244.106 93.8V84.08H246.026V93.72C246.026 94.2933 246.166 94.7333 246.446 95.04C246.74 95.3467 247.153 95.5 247.686 95.5C248.286 95.5 248.786 95.3333 249.186 95L249.786 96.38C249.493 96.6333 249.14 96.82 248.726 96.94C248.326 97.06 247.906 97.12 247.466 97.12ZM242.306 87.98V86.4H249.066V87.98H242.306ZM257.676 97.12C256.543 97.12 255.543 96.8867 254.676 96.42C253.823 95.9533 253.156 95.3133 252.676 94.5C252.209 93.6867 251.976 92.7533 251.976 91.7C251.976 90.6467 252.203 89.7133 252.656 88.9C253.123 88.0867 253.756 87.4533 254.556 87C255.369 86.5333 256.283 86.3 257.296 86.3C258.323 86.3 259.229 86.5267 260.016 86.98C260.803 87.4333 261.416 88.0733 261.856 88.9C262.309 89.7133 262.536 90.6667 262.536 91.76C262.536 91.84 262.529 91.9333 262.516 92.04C262.516 92.1467 262.509 92.2467 262.496 92.34H253.476V90.96H261.496L260.716 91.44C260.729 90.76 260.589 90.1533 260.296 89.62C260.003 89.0867 259.596 88.6733 259.076 88.38C258.569 88.0733 257.976 87.92 257.296 87.92C256.629 87.92 256.036 88.0733 255.516 88.38C254.996 88.6733 254.589 89.0933 254.296 89.64C254.003 90.1733 253.856 90.7867 253.856 91.48V91.8C253.856 92.5067 254.016 93.14 254.336 93.7C254.669 94.2467 255.129 94.6733 255.716 94.98C256.303 95.2867 256.976 95.44 257.736 95.44C258.363 95.44 258.929 95.3333 259.436 95.12C259.956 94.9067 260.409 94.5867 260.796 94.16L261.856 95.4C261.376 95.96 260.776 96.3867 260.056 96.68C259.349 96.9733 258.556 97.12 257.676 97.12ZM273.433 101C272.926 101 272.433 100.913 271.953 100.74C271.473 100.58 271.06 100.34 270.713 100.02L271.533 98.58C271.8 98.8333 272.093 99.0267 272.413 99.16C272.733 99.2933 273.073 99.36 273.433 99.36C273.9 99.36 274.286 99.24 274.593 99C274.9 98.76 275.186 98.3333 275.453 97.72L276.113 96.26L276.313 96.02L280.473 86.4H282.353L277.213 98.06C276.906 98.8067 276.56 99.3933 276.173 99.82C275.8 100.247 275.386 100.547 274.933 100.72C274.48 100.907 273.98 101 273.433 101ZM275.953 97.34L271.113 86.4H273.113L277.233 95.84L275.953 97.34ZM289.592 97.12C288.525 97.12 287.579 96.8867 286.752 96.42C285.925 95.9533 285.272 95.3133 284.792 94.5C284.312 93.6733 284.072 92.74 284.072 91.7C284.072 90.6467 284.312 89.7133 284.792 88.9C285.272 88.0867 285.925 87.4533 286.752 87C287.579 86.5333 288.525 86.3 289.592 86.3C290.645 86.3 291.585 86.5333 292.412 87C293.252 87.4533 293.905 88.0867 294.372 88.9C294.852 89.7 295.092 90.6333 295.092 91.7C295.092 92.7533 294.852 93.6867 294.372 94.5C293.905 95.3133 293.252 95.9533 292.412 96.42C291.585 96.8867 290.645 97.12 289.592 97.12ZM289.592 95.44C290.272 95.44 290.879 95.2867 291.412 94.98C291.959 94.6733 292.385 94.24 292.692 93.68C292.999 93.1067 293.152 92.4467 293.152 91.7C293.152 90.94 292.999 90.2867 292.692 89.74C292.385 89.18 291.959 88.7467 291.412 88.44C290.879 88.1333 290.272 87.98 289.592 87.98C288.912 87.98 288.305 88.1333 287.772 88.44C287.239 88.7467 286.812 89.18 286.492 89.74C286.172 90.2867 286.012 90.94 286.012 91.7C286.012 92.4467 286.172 93.1067 286.492 93.68C286.812 94.24 287.239 94.6733 287.772 94.98C288.305 95.2867 288.912 95.44 289.592 95.44ZM303.407 97.12C302.501 97.12 301.701 96.9533 301.007 96.62C300.327 96.2867 299.794 95.78 299.407 95.1C299.034 94.4067 298.847 93.54 298.847 92.5V86.4H300.767V92.28C300.767 93.32 301.014 94.1 301.507 94.62C302.014 95.14 302.721 95.4 303.627 95.4C304.294 95.4 304.874 95.2667 305.367 95C305.861 94.72 306.241 94.32 306.507 93.8C306.774 93.2667 306.907 92.6267 306.907 91.88V86.4H308.827V97H307.007V94.14L307.307 94.9C306.961 95.6067 306.441 96.1533 305.747 96.54C305.054 96.9267 304.274 97.12 303.407 97.12ZM313.683 97V86.4H315.523V89.28L315.343 88.56C315.636 87.8267 316.129 87.2667 316.823 86.88C317.516 86.4933 318.369 86.3 319.383 86.3V88.16C319.303 88.1467 319.223 88.14 319.143 88.14C319.076 88.14 319.009 88.14 318.943 88.14C317.916 88.14 317.103 88.4467 316.503 89.06C315.903 89.6733 315.603 90.56 315.603 91.72V97H313.683ZM329.657 97V82.16H331.577V97H329.657ZM341.163 97.12C340.029 97.12 339.029 96.8867 338.163 96.42C337.309 95.9533 336.643 95.3133 336.163 94.5C335.696 93.6867 335.463 92.7533 335.463 91.7C335.463 90.6467 335.689 89.7133 336.143 88.9C336.609 88.0867 337.243 87.4533 338.043 87C338.856 86.5333 339.769 86.3 340.783 86.3C341.809 86.3 342.716 86.5267 343.503 86.98C344.289 87.4333 344.903 88.0733 345.343 88.9C345.796 89.7133 346.023 90.6667 346.023 91.76C346.023 91.84 346.016 91.9333 346.003 92.04C346.003 92.1467 345.996 92.2467 345.983 92.34H336.963V90.96H344.983L344.203 91.44C344.216 90.76 344.076 90.1533 343.783 89.62C343.489 89.0867 343.083 88.6733 342.563 88.38C342.056 88.0733 341.463 87.92 340.783 87.92C340.116 87.92 339.523 88.0733 339.003 88.38C338.483 88.6733 338.076 89.0933 337.783 89.64C337.489 90.1733 337.343 90.7867 337.343 91.48V91.8C337.343 92.5067 337.503 93.14 337.823 93.7C338.156 94.2467 338.616 94.6733 339.203 94.98C339.789 95.2867 340.463 95.44 341.223 95.44C341.849 95.44 342.416 95.3333 342.923 95.12C343.443 94.9067 343.896 94.5867 344.283 94.16L345.343 95.4C344.863 95.96 344.263 96.3867 343.543 96.68C342.836 96.9733 342.043 97.12 341.163 97.12ZM356.176 97V94.76L356.076 94.34V90.52C356.076 89.7067 355.836 89.08 355.356 88.64C354.889 88.1867 354.182 87.96 353.236 87.96C352.609 87.96 351.996 88.0667 351.396 88.28C350.796 88.48 350.289 88.7533 349.876 89.1L349.076 87.66C349.622 87.22 350.276 86.8867 351.036 86.66C351.809 86.42 352.616 86.3 353.456 86.3C354.909 86.3 356.029 86.6533 356.816 87.36C357.602 88.0667 357.996 89.1467 357.996 90.6V97H356.176ZM352.696 97.12C351.909 97.12 351.216 96.9867 350.616 96.72C350.029 96.4533 349.576 96.0867 349.256 95.62C348.936 95.14 348.776 94.6 348.776 94C348.776 93.4267 348.909 92.9067 349.176 92.44C349.456 91.9733 349.902 91.6 350.516 91.32C351.142 91.04 351.982 90.9 353.036 90.9H356.396V92.28H353.116C352.156 92.28 351.509 92.44 351.176 92.76C350.842 93.08 350.676 93.4667 350.676 93.92C350.676 94.44 350.882 94.86 351.296 95.18C351.709 95.4867 352.282 95.64 353.016 95.64C353.736 95.64 354.362 95.48 354.896 95.16C355.442 94.84 355.836 94.3733 356.076 93.76L356.456 95.08C356.202 95.7067 355.756 96.2067 355.116 96.58C354.476 96.94 353.669 97.12 352.696 97.12ZM362.749 97V86.4H364.589V89.28L364.409 88.56C364.702 87.8267 365.196 87.2667 365.889 86.88C366.582 86.4933 367.436 86.3 368.449 86.3V88.16C368.369 88.1467 368.289 88.14 368.209 88.14C368.142 88.14 368.076 88.14 368.009 88.14C366.982 88.14 366.169 88.4467 365.569 89.06C364.969 89.6733 364.669 90.56 364.669 91.72V97H362.749ZM377.675 86.3C378.542 86.3 379.302 86.4667 379.955 86.8C380.622 87.1333 381.142 87.64 381.515 88.32C381.889 89 382.075 89.86 382.075 90.9V97H380.155V91.12C380.155 90.0933 379.902 89.32 379.395 88.8C378.902 88.28 378.202 88.02 377.295 88.02C376.615 88.02 376.022 88.1533 375.515 88.42C375.009 88.6867 374.615 89.08 374.335 89.6C374.069 90.12 373.935 90.7667 373.935 91.54V97H372.015V86.4H373.855V89.26L373.555 88.5C373.902 87.8067 374.435 87.2667 375.155 86.88C375.875 86.4933 376.715 86.3 377.675 86.3ZM386.829 97V86.4H388.749V97H386.829ZM387.789 84.36C387.415 84.36 387.102 84.24 386.849 84C386.609 83.76 386.489 83.4667 386.489 83.12C386.489 82.76 386.609 82.46 386.849 82.22C387.102 81.98 387.415 81.86 387.789 81.86C388.162 81.86 388.469 81.98 388.709 82.22C388.962 82.4467 389.089 82.7333 389.089 83.08C389.089 83.44 388.969 83.7467 388.729 84C388.489 84.24 388.175 84.36 387.789 84.36ZM399.275 86.3C400.141 86.3 400.901 86.4667 401.555 86.8C402.221 87.1333 402.741 87.64 403.115 88.32C403.488 89 403.675 89.86 403.675 90.9V97H401.755V91.12C401.755 90.0933 401.501 89.32 400.995 88.8C400.501 88.28 399.801 88.02 398.895 88.02C398.215 88.02 397.621 88.1533 397.115 88.42C396.608 88.6867 396.215 89.08 395.935 89.6C395.668 90.12 395.535 90.7667 395.535 91.54V97H393.615V86.4H395.455V89.26L395.155 88.5C395.501 87.8067 396.035 87.2667 396.755 86.88C397.475 86.4933 398.315 86.3 399.275 86.3ZM413.068 101C412.094 101 411.148 100.86 410.228 100.58C409.321 100.313 408.581 99.9267 408.008 99.42L408.928 97.94C409.421 98.3667 410.028 98.7 410.748 98.94C411.468 99.1933 412.221 99.32 413.008 99.32C414.261 99.32 415.181 99.0267 415.768 98.44C416.354 97.8533 416.648 96.96 416.648 95.76V93.52L416.848 91.42L416.748 89.3V86.4H418.568V95.56C418.568 97.4267 418.101 98.8 417.168 99.68C416.234 100.56 414.868 101 413.068 101ZM412.828 96.56C411.801 96.56 410.881 96.3467 410.068 95.92C409.268 95.48 408.628 94.8733 408.148 94.1C407.681 93.3267 407.448 92.4333 407.448 91.42C407.448 90.3933 407.681 89.5 408.148 88.74C408.628 87.9667 409.268 87.3667 410.068 86.94C410.881 86.5133 411.801 86.3 412.828 86.3C413.734 86.3 414.561 86.4867 415.308 86.86C416.054 87.22 416.648 87.78 417.088 88.54C417.541 89.3 417.768 90.26 417.768 91.42C417.768 92.5667 417.541 93.52 417.088 94.28C416.648 95.04 416.054 95.6133 415.308 96C414.561 96.3733 413.734 96.56 412.828 96.56ZM413.048 94.88C413.754 94.88 414.381 94.7333 414.928 94.44C415.474 94.1467 415.901 93.74 416.208 93.22C416.528 92.7 416.688 92.1 416.688 91.42C416.688 90.74 416.528 90.14 416.208 89.62C415.901 89.1 415.474 88.7 414.928 88.42C414.381 88.1267 413.754 87.98 413.048 87.98C412.341 87.98 411.708 88.1267 411.148 88.42C410.601 88.7 410.168 89.1 409.848 89.62C409.541 90.14 409.388 90.74 409.388 91.42C409.388 92.1 409.541 92.7 409.848 93.22C410.168 93.74 410.601 94.1467 411.148 94.44C411.708 94.7333 412.341 94.88 413.048 94.88Z" fill="#559092"/>
<path d="M103.546 13.0463C104.456 13.8576 104.848 14.7212 105.225 15.8691C105.225 16.0303 105.225 16.1914 105.225 16.3574C105.615 16.3225 105.615 16.3225 106.012 16.2868C110.833 15.8991 115.143 16.7396 119.033 19.7744C122.182 22.4634 124.464 26.2007 124.805 30.3934C124.983 35.0464 124.265 39.2663 121.017 42.8162C119.616 44.2902 118.075 45.7729 116.211 46.6309C116.249 46.7668 116.287 46.9028 116.326 47.0428C116.671 48.3925 116.795 49.4201 116.455 50.7812C115.454 52.0769 114.245 52.4559 112.749 52.9604C112.504 53.0462 112.259 53.1319 112.006 53.2203C111.222 53.494 110.436 53.7627 109.65 54.0314C109.138 54.2089 108.627 54.3868 108.115 54.565C107.095 54.9202 106.073 55.272 105.05 55.6217C104.013 55.9779 102.979 56.3447 101.949 56.7201C101.696 56.811 101.444 56.9019 101.184 56.9956C100.707 57.1675 100.231 57.3418 99.7566 57.5189C98.4262 57.9956 97.3623 58.2412 95.9473 58.1055C94.5734 57.276 94.2112 56.4432 93.75 54.9316C91.9975 55.4417 90.2694 56.0069 88.5448 56.6044C88.2818 56.6951 88.0188 56.7858 87.7479 56.8793C86.8899 57.1756 86.0322 57.4726 85.1746 57.7698C84.8805 57.8715 84.5864 57.9732 84.2834 58.078C79.0428 59.8909 73.8123 61.7318 68.5873 63.5891C68.3741 63.6647 68.1609 63.7403 67.9413 63.8182C67.0025 64.1516 66.0649 64.4876 65.1309 64.8342C64.8298 64.9451 64.5287 65.056 64.2185 65.1703C63.8393 65.3124 63.8393 65.3124 63.4524 65.4573C62.3149 65.805 61.2271 65.9179 60.0586 65.6738C58.7822 64.8403 58.6723 63.8996 58.3496 62.5C57.0877 62.9156 55.8264 63.3329 54.5654 63.7512C54.3726 63.8152 54.1797 63.8791 53.9811 63.945C51.5984 64.7361 49.222 65.5426 46.854 66.3767C46.633 66.4545 46.412 66.5323 46.1843 66.6125C45.1058 66.9927 44.0281 67.3749 42.9511 67.7592C42.5558 67.8992 42.1605 68.0392 41.7652 68.1791C41.587 68.2433 41.4089 68.3076 41.2253 68.3737C38.8267 69.2202 38.8267 69.2202 37.4451 68.8629C36.4062 68.228 36.0159 67.5502 35.6445 66.4063C35.6445 66.1646 35.6445 65.9229 35.6445 65.6738C34.3217 66.1099 32.9993 66.5475 31.6772 66.9861C31.3813 67.0842 31.3813 67.0842 31.0793 67.1844C28.0593 68.1872 25.0559 69.2272 22.0692 70.3253C21.6773 70.4681 21.6773 70.4681 21.2774 70.6139C21.0508 70.6975 20.8242 70.7811 20.5907 70.8673C20.0195 71.0449 20.0195 71.0449 19.2871 71.0449C19.4759 71.4603 19.4759 71.4603 19.6686 71.8842C20.0759 72.9886 20.2396 74.0856 19.7754 75.1953C18.7156 76.2063 17.746 76.7161 16.367 77.1761C16.184 77.2394 16.001 77.3027 15.8125 77.3679C15.4277 77.5001 15.0424 77.6307 14.6565 77.7598C14.0704 77.9565 13.4868 78.1598 12.9032 78.3639C12.527 78.4922 12.1506 78.6202 11.7741 78.7478C11.6018 78.808 11.4296 78.8683 11.2521 78.9303C10.058 79.3235 9.07022 79.4974 7.8125 79.3457C6.40644 78.506 5.99151 77.5268 5.48935 76.0117C5.41665 75.8048 5.34394 75.5979 5.26904 75.3848C5.03407 74.7127 4.80573 74.0387 4.57764 73.3643C4.41729 72.9 4.25658 72.4359 4.0955 71.972C3.77372 71.0432 3.45448 70.1137 3.13699 69.1835C2.73756 68.0166 2.32408 66.8555 1.90449 65.6958C1.78887 65.3732 1.67339 65.0505 1.55807 64.7278C1.34955 64.145 1.13907 63.5629 0.926258 62.9816C0.41671 61.5315 -0.0652831 60.1395 0.244143 58.5937C0.903697 57.3432 1.89164 56.9997 3.15857 56.5491C3.34878 56.4789 3.53898 56.4087 3.73495 56.3364C4.14436 56.1869 4.55455 56.0396 4.96543 55.8941C5.40807 55.7374 5.84983 55.5782 6.2908 55.4168C6.9693 55.1687 7.64978 54.9272 8.3313 54.6875C8.54214 54.6106 8.75298 54.5337 8.9702 54.4544C10.3327 53.9898 11.2836 53.8757 12.6953 54.1992C13.9422 55.0937 14.082 55.9546 14.4043 57.373C16.2296 56.7452 18.0548 56.117 19.8798 55.4884C20.7273 55.1965 21.5749 54.9048 22.4225 54.6132C23.241 54.3317 24.0594 54.0499 24.8777 53.7679C25.3408 53.6084 25.804 53.4492 26.2672 53.29C26.5506 53.1923 26.834 53.0946 27.126 52.9939C27.3749 52.9082 27.6237 52.8226 27.8801 52.7343C28.331 52.5735 28.7777 52.4004 29.2189 52.2146C29.7852 52.002 29.7852 52.002 30.5176 52.002C30.437 51.7653 30.3564 51.5286 30.2734 51.2848C29.9823 50.2449 29.807 49.162 30.0293 48.0957C30.8411 46.7173 31.9752 46.4169 33.4158 45.9337C33.6557 45.8498 33.8956 45.7659 34.1427 45.6795C34.9218 45.4079 35.7027 45.142 36.4838 44.8761C37.0173 44.6914 37.5508 44.5064 38.0842 44.3211C39.141 43.9546 40.1987 43.5902 41.257 43.2279C42.5258 42.7935 43.7925 42.3535 45.0583 41.9102C47.5225 41.0495 47.5225 41.0495 48.6202 40.6713C48.9494 40.5575 48.9494 40.5575 49.2853 40.4415C49.8047 40.2832 49.8047 40.2832 50.293 40.2832C50.2124 40.0415 50.1318 39.7998 50.0488 39.5508C49.7082 38.3403 49.5587 37.1779 50.0817 35.9941C50.666 35.2324 51.1428 35.0549 52.0411 34.7214C52.1993 34.6617 52.3575 34.6021 52.5205 34.5407C53.0781 34.3332 53.6382 34.1337 54.1992 33.9355C54.4128 33.8595 54.6265 33.7835 54.8466 33.7052C56.3424 33.1751 57.8422 32.6568 59.3434 32.1422C60.4678 31.7567 61.5916 31.3691 62.7153 30.9817C63.286 30.7849 63.8567 30.5883 64.4275 30.3918C67.0173 29.4998 69.6042 28.5999 72.1893 27.6947C72.3877 27.6253 72.586 27.5559 72.7903 27.4843C76.1218 26.3176 79.4465 25.1327 82.7637 23.9258C82.6853 23.6617 82.6069 23.3977 82.5262 23.1256C82.2622 22.169 82.15 21.4928 82.2754 20.5078C83.0945 19.3323 83.699 18.8446 85.0811 18.3773C85.2457 18.3199 85.4102 18.2626 85.5798 18.2035C85.9632 18.0699 86.3472 17.9382 86.7318 17.8079C87.4909 17.5478 88.2459 17.2772 89.0009 17.0052C90.3624 16.515 91.7256 16.0297 93.0902 15.5481C93.8862 15.2671 94.6819 14.9851 95.4769 14.701C96.4065 14.3687 97.3374 14.0402 98.2685 13.7119C98.5531 13.6097 98.8377 13.5075 99.1309 13.4022C99.3968 13.3092 99.6627 13.2161 99.9366 13.1203C100.169 13.038 100.401 12.9556 100.64 12.8708C101.735 12.5876 102.515 12.5721 103.546 13.0463ZM98.4676 19.3738C98.2428 19.4521 98.0181 19.5303 97.7865 19.6109C97.5459 19.6976 97.3052 19.7843 97.0573 19.8736C96.6855 20.0042 96.6855 20.0042 96.3062 20.1374C95.5143 20.4161 94.7237 20.6984 93.9331 20.9808C93.3966 21.1704 92.86 21.3597 92.3233 21.5487C91.0075 22.0128 89.6928 22.4799 88.3789 22.9492C89.8805 27.5462 91.4737 32.1071 93.0963 36.6626C94.006 39.2183 94.9086 41.7761 95.7918 44.3411C95.8764 44.5862 95.961 44.8313 96.0482 45.0838C96.7089 46.9981 96.7089 46.9981 97.0239 47.9226C97.243 48.5654 97.4642 49.2075 97.6858 49.8495C97.7502 50.0407 97.8146 50.2318 97.881 50.4288C98.152 51.3937 98.152 51.3937 98.877 52.002C99.3847 51.8923 99.3847 51.8923 99.9594 51.6866C100.183 51.6115 100.407 51.5364 100.638 51.4591C100.881 51.3755 101.123 51.2918 101.373 51.2056C101.621 51.1209 101.869 51.0362 102.124 50.9489C102.649 50.7686 103.174 50.5873 103.699 50.4051C104.504 50.1265 105.311 49.8541 106.118 49.582C106.627 49.4064 107.135 49.2305 107.644 49.0541C107.887 48.973 108.13 48.8918 108.38 48.8082C108.715 48.6898 108.715 48.6898 109.057 48.569C109.254 48.5011 109.452 48.4331 109.655 48.3631C110.138 48.1334 110.138 48.1334 110.32 47.6607C110.361 46.9528 110.193 46.4628 109.956 45.7939C109.862 45.5259 109.769 45.2578 109.673 44.9815C109.568 44.6896 109.463 44.3977 109.355 44.0969C109.246 43.7873 109.137 43.4775 109.028 43.1677C108.735 42.3326 108.438 41.4986 108.141 40.6649C107.833 39.7994 107.526 38.933 107.22 38.0667C106.845 37.0062 106.47 35.9457 106.093 34.8857C105.382 32.8819 104.679 30.8753 103.99 28.8638C103.592 27.7032 103.191 26.5436 102.79 25.384C102.603 24.8397 102.416 24.2949 102.232 23.7497C101.976 22.9965 101.715 22.2451 101.454 21.4939C101.38 21.2716 101.306 21.0493 101.229 20.8203C101.159 20.6201 101.088 20.42 101.015 20.2137C100.925 19.9523 100.925 19.9523 100.834 19.6857C100.614 19.2504 100.614 19.2504 100.142 19.0864C99.4938 19.0335 99.0806 19.1566 98.4676 19.3738ZM107.178 21.7285C107.717 23.8532 108.405 25.9138 109.131 27.9808C109.249 28.3177 109.366 28.6546 109.484 28.9915C109.729 29.6926 109.974 30.3935 110.22 31.0942C110.534 31.9882 110.846 32.8828 111.158 33.7775C111.4 34.4713 111.643 35.165 111.886 35.8586C112.001 36.1883 112.116 36.518 112.231 36.8478C113.053 39.2032 113.053 39.2032 114.014 41.5039C116.671 39.9095 118.498 37.5625 119.305 34.5421C119.731 31.3151 119.222 28.5129 117.311 25.8541C115.307 23.3307 112.775 21.9378 109.589 21.5607C108.722 21.4679 108.028 21.5464 107.178 21.7285ZM82.8941 29.6344C82.6774 29.7092 82.4607 29.7839 82.2374 29.8609C81.8842 29.9853 81.8842 29.9853 81.5239 30.1123C81.2751 30.1986 81.0263 30.2849 80.77 30.3739C79.9488 30.6593 79.1285 30.947 78.3081 31.2347C77.7383 31.4334 77.1684 31.632 76.5985 31.8305C71.5165 33.6028 66.4398 35.3915 61.371 37.2014C60.4131 37.5433 59.4547 37.8828 58.4924 38.2122C58.3308 38.2681 58.1692 38.3239 58.0027 38.3815C57.5816 38.5268 57.16 38.6704 56.7383 38.8138C56.116 39.0032 56.116 39.0032 55.9082 39.5508C56.0254 40.0678 56.0254 40.0678 56.2413 40.6554C56.3207 40.8861 56.4001 41.1168 56.4819 41.3545C56.5708 41.6065 56.6597 41.8585 56.7513 42.1181C56.842 42.3797 56.9327 42.6414 57.0262 42.9109C57.3231 43.765 57.6226 44.6181 57.9224 45.4712C58.1251 46.0522 58.3277 46.6332 58.5302 47.2143C59.9743 51.3485 61.4512 55.4697 62.9883 59.5703C64.7872 59.1015 66.5465 58.5639 68.3012 57.951C68.5476 57.8657 68.7941 57.7803 69.048 57.6924C69.8513 57.414 70.6541 57.1342 71.4569 56.8542C72.0179 56.6593 72.5789 56.4644 73.1399 56.2696C77.0642 54.905 80.9835 53.5262 84.8999 52.1393C85.1496 52.0509 85.3993 51.9624 85.6565 51.8713C86.3645 51.6205 87.0723 51.3693 87.78 51.1179C87.986 51.0448 88.1919 50.9718 88.4041 50.8965C89.6212 50.4634 90.8326 50.0174 92.041 49.5605C89.7416 42.7844 87.3599 36.0383 84.9609 29.2969C84.1006 29.2969 83.6763 29.3617 82.8941 29.6344ZM50.3866 45.7718C50.1582 45.8509 49.9298 45.9301 49.6944 46.0116C49.4473 46.0986 49.2001 46.1855 48.9454 46.2751C48.689 46.3644 48.4327 46.4536 48.1685 46.5455C47.3453 46.8323 46.5227 47.1207 45.7001 47.4091C45.156 47.5988 44.612 47.7884 44.0679 47.9779C41.419 48.9015 38.7722 49.8308 36.1328 50.7812C36.6978 53.0714 37.4593 55.2906 38.2363 57.5154C38.4543 58.1422 38.6683 58.7704 38.8823 59.3987C39.0209 59.7974 39.1598 60.196 39.299 60.5946C39.394 60.8764 39.394 60.8764 39.491 61.164C39.652 61.6176 39.8431 62.0603 40.0391 62.5C40.9278 62.7963 41.1817 62.664 42.0524 62.3615C42.3141 62.2718 42.5758 62.1821 42.8454 62.0896C43.1284 61.9899 43.4115 61.8903 43.7031 61.7876C43.9949 61.6866 44.2867 61.5856 44.5873 61.4816C45.2063 61.2669 45.8248 61.0513 46.443 60.8343C47.2294 60.5583 48.0167 60.285 48.8044 60.0127C49.561 59.751 50.3171 59.4875 51.0731 59.2241C51.3532 59.1269 51.6332 59.0297 51.9218 58.9296C53.4467 58.3937 54.9334 57.8167 56.3965 57.1289C56.0031 55.9304 55.6081 54.7323 55.2118 53.5347C55.0777 53.1286 54.9439 52.7224 54.8106 52.3159C54.0413 49.9722 53.2471 47.6672 52.2461 45.4102C51.5076 45.4102 51.0769 45.5307 50.3866 45.7718ZM30.4258 57.5154C30.1633 57.6059 29.9009 57.6964 29.6305 57.7897C29.2066 57.9403 29.2066 57.9403 28.7743 58.094C28.4822 58.1956 28.1902 58.2972 27.8893 58.4018C27.1124 58.6726 26.3363 58.9456 25.5605 59.2198C24.7769 59.496 23.9922 59.769 23.2077 60.0424C19.7712 61.24 19.7712 61.24 16.3574 62.5C16.4742 62.9324 16.5912 63.3647 16.7084 63.797C16.7735 64.0378 16.8387 64.2785 16.9058 64.5266C17.0363 64.9939 17.1805 65.4576 17.334 65.918C19.0388 65.5747 20.6452 65.0825 22.2855 64.5084C22.5427 64.4193 22.7999 64.3302 23.0649 64.2384C23.6059 64.0506 24.1468 63.8622 24.6874 63.6733C25.5097 63.3861 26.3327 63.1012 27.1559 62.8166C27.6839 62.633 28.212 62.4493 28.7399 62.2654C28.9834 62.1812 29.2268 62.097 29.4776 62.0102C30.9155 61.506 32.3103 60.9467 33.6914 60.3027C33.554 59.8181 33.4104 59.3352 33.2642 58.8531C33.1849 58.5841 33.1055 58.315 33.0238 58.0378C32.7939 57.3521 32.7939 57.3521 32.2893 57.1853C31.5729 57.112 31.1053 57.2773 30.4258 57.5154ZM7.64466 60.791C7.4156 60.8772 7.18655 60.9635 6.95056 61.0523C6.7516 61.1272 6.55264 61.2021 6.34766 61.2793C6.9104 63.5722 7.68217 65.7885 8.46452 68.0134C8.68452 68.6405 8.90158 69.2686 9.11856 69.8967C9.25809 70.2954 9.3978 70.694 9.5377 71.0926C9.63461 71.3745 9.6346 71.3745 9.73347 71.662C10.0129 72.63 10.0129 72.63 10.7422 73.2422C11.2462 73.1033 11.7443 72.9423 12.2376 72.7692C12.5051 72.6763 12.7726 72.5835 13.0482 72.4878C13.254 72.4145 13.4598 72.3412 13.6719 72.2656C13.5239 70.8504 13.1432 69.6074 12.6648 68.2707C12.5899 68.0575 12.5149 67.8443 12.4377 67.6247C12.1995 66.9484 11.9591 66.273 11.7188 65.5975C11.5571 65.139 11.3956 64.6805 11.2343 64.2219C10.9394 63.3862 10.6445 62.5506 10.3474 61.7158C10.2879 61.5485 10.2285 61.3813 10.1672 61.209C10.011 60.7725 10.011 60.7725 9.76563 60.3027C8.94174 60.3027 8.41317 60.5017 7.64466 60.791Z" fill="#559092"/>
<path d="M82.0312 61.5234C82.9027 62.1538 83.1955 62.5502 83.4961 63.5834C83.4961 64.6067 83.3429 65.0771 82.7637 65.918C81.3897 67.0462 79.7311 67.4866 78.064 68.0389C77.4879 68.2329 76.9118 68.4272 76.3359 68.6216C75.9548 68.7485 75.9548 68.7485 75.566 68.8779C74.9623 69.0732 74.9623 69.0732 74.4629 69.3359C76.3347 72.2936 78.2225 75.2397 80.1392 78.1685C81.269 79.8968 82.3852 81.6335 83.4961 83.374C85.071 85.8412 86.6639 88.296 88.2654 90.7459C89.3416 92.3923 90.4097 94.044 91.4769 95.6962C91.9182 96.3792 92.36 97.062 92.8019 97.7447C93.0263 98.0915 93.2507 98.4383 93.475 98.7852C94.0366 99.6534 94.5988 100.521 95.1624 101.388C95.7215 102.248 96.2781 103.11 96.8331 103.973C97.0608 104.326 97.2895 104.678 97.519 105.03C97.8621 105.556 98.202 106.085 98.5413 106.613C98.6973 106.85 98.6973 106.85 98.8565 107.092C99.443 108.014 99.7902 108.767 99.8535 109.863C99.5574 110.891 99.3281 111.418 98.465 112.061C97.462 112.363 96.6771 112.449 95.7031 112.061C94.1695 110.901 93.2524 108.968 92.2642 107.351C91.4725 106.061 90.6434 104.796 89.8132 103.531C88.5092 101.54 87.2179 99.5408 85.9375 97.5342C84.3626 95.067 82.7697 92.6122 81.1682 90.1623C80.0901 88.5131 79.0203 86.8585 77.9513 85.2034C77.6387 84.7198 77.3255 84.2367 77.0121 83.7536C75.9828 82.1664 74.9571 80.577 73.9393 78.9824C73.8516 78.8449 73.7639 78.7075 73.6735 78.566C73.2357 77.8803 72.7984 77.1944 72.3618 76.508C72.2016 76.2571 72.0415 76.0061 71.8765 75.7475C71.7338 75.5233 71.5911 75.2991 71.444 75.0682C71.0565 74.4635 71.0565 74.4635 70.6267 73.9248C70.3125 73.4863 70.3125 73.4863 70.3125 72.9981C70.1514 72.9981 69.9902 72.9981 69.8242 72.9981C69.7614 73.1714 69.6986 73.3447 69.6339 73.5233C69.3131 74.272 68.9241 74.9014 68.4748 75.5806C68.3028 75.8418 68.1309 76.1031 67.9537 76.3722C67.7685 76.6513 67.5833 76.9304 67.3981 77.2095C67.2083 77.4972 67.0186 77.7851 66.8291 78.073C66.4532 78.6438 66.077 79.2144 65.7004 79.7848C65.0453 80.7794 64.3968 81.7781 63.7512 82.7789C63.6463 82.9414 63.5413 83.1039 63.4332 83.2713C63.2261 83.5919 63.0191 83.9127 62.8121 84.2334C62.374 84.9119 61.9352 85.5899 61.4964 86.2679C61.1579 86.791 60.8195 87.3141 60.4811 87.8372C60.0498 88.5038 59.6181 89.1701 59.186 89.8361C57.8617 91.8784 56.5471 93.9265 55.2368 95.9778C53.6425 98.473 52.0311 100.957 50.4103 103.435C49.7485 104.447 49.0917 105.462 48.4374 106.479C44.9157 111.95 44.9157 111.95 43.5028 112.274C42.4802 112.361 41.8562 112.198 41.0156 111.572C40.531 110.744 40.2691 110.169 40.3137 109.203C40.6021 108.117 41.1324 107.281 41.7328 106.339C41.9138 106.048 41.9138 106.048 42.0985 105.753C43.0501 104.237 44.0366 102.746 45.0373 101.262C45.6976 100.282 46.3408 99.2904 46.9818 98.2971C47.0935 98.124 47.2053 97.9509 47.3204 97.7725C47.547 97.4211 47.7737 97.0696 48.0002 96.7181C48.5599 95.8501 49.1214 94.9832 49.6826 94.1162C49.9064 93.7704 50.1302 93.4245 50.354 93.0786C51.6968 91.0034 51.6968 91.0034 52.0322 90.4851C52.257 90.1377 52.4818 89.7902 52.7065 89.4427C53.2504 88.6021 53.7945 87.7616 54.3394 86.9217C55.3414 85.3763 56.3406 83.8292 57.3311 82.2763C59.2661 79.2427 61.2206 76.2256 63.2324 73.2422C63.0408 73.3127 62.8491 73.3832 62.6516 73.4558C59.9008 74.4279 59.9008 74.4279 58.5937 74.2188C57.7648 73.7964 57.2704 73.4698 56.7779 72.6776C56.5429 71.5545 56.6593 70.6759 57.2665 69.6971C58.0144 68.936 58.79 68.6483 59.7792 68.3174C59.973 68.249 60.1669 68.1806 60.3667 68.1102C61.0104 67.8842 61.6559 67.6639 62.3016 67.4439C62.7541 67.287 63.2064 67.1297 63.6586 66.9723C64.6273 66.6354 65.5968 66.3008 66.5666 65.9671C67.9022 65.5058 69.233 65.0321 70.5629 64.5545C71.6481 64.165 72.7345 63.7789 73.821 63.3933C74.3486 63.2054 74.8758 63.0162 75.4025 62.8257C76.144 62.5581 76.8872 62.2958 77.631 62.0346C77.8501 61.9542 78.0691 61.8738 78.2948 61.7909C79.6629 61.318 80.6117 61.1937 82.0312 61.5234Z" fill="#559092"/>
</svg>
